<svg id="Layer_1" data-name="Layer 1" xmlns="http://www.w3.org/2000/svg" xmlns:xlink="http://www.w3.org/1999/xlink" viewBox="0 0 373.29 341.39"><defs><linearGradient id="linear-gradient" x1="123.21" y1="452.53" x2="128.41" y2="291.2" gradientUnits="userSpaceOnUse"><stop offset="0.01"/><stop offset="1" stop-opacity="0"/></linearGradient><linearGradient id="linear-gradient-2" x1="222.73" y1="294.65" x2="213.63" y2="-171.11" gradientUnits="userSpaceOnUse"><stop offset="0.01"/><stop offset="0.15" stop-opacity="0.26"/><stop offset="1" stop-opacity="0"/></linearGradient><linearGradient id="linear-gradient-3" x1="245.42" y1="122.25" x2="55.31" y2="162.13" xlink:href="#linear-gradient"/><linearGradient id="linear-gradient-4" x1="91.11" y1="228.78" x2="128.15" y2="230.81" xlink:href="#linear-gradient"/><linearGradient id="linear-gradient-5" x1="134.14" y1="194.49" x2="139.79" y2="194.8" xlink:href="#linear-gradient"/><linearGradient id="linear-gradient-6" x1="114.79" y1="193.99" x2="131.92" y2="194.93" xlink:href="#linear-gradient"/><linearGradient id="linear-gradient-7" x1="135.25" y1="167.8" x2="147.84" y2="165.25" xlink:href="#linear-gradient"/><linearGradient id="linear-gradient-8" x1="84.71" y1="195.82" x2="125.99" y2="165.66" xlink:href="#linear-gradient"/><linearGradient id="linear-gradient-9" x1="96.11" y1="101.56" x2="82.74" y2="96.57" xlink:href="#linear-gradient"/><linearGradient id="linear-gradient-10" x1="132.98" y1="108.66" x2="115.63" y2="85.46" xlink:href="#linear-gradient"/><linearGradient id="linear-gradient-11" x1="111.44" y1="114.32" x2="104.03" y2="115.87" xlink:href="#linear-gradient"/><linearGradient id="linear-gradient-12" x1="109.64" y1="175.51" x2="96.71" y2="169.39" xlink:href="#linear-gradient"/><linearGradient id="linear-gradient-13" x1="167.47" y1="112.35" x2="198.4" y2="172.19" xlink:href="#linear-gradient"/><linearGradient id="linear-gradient-14" x1="167.38" y1="165.19" x2="174.79" y2="179.51" xlink:href="#linear-gradient"/></defs><title>Teacher</title><path d="M181.26,342.77c57.14-1.72,117-4.18,166.38-32.93,23.47-13.66,45.26-36.79,43.47-63.88-1.77-26.78-25-46.07-43.28-65.74A223.2,223.2,0,0,1,294.05,78.16c-6.62-29.34-31.77-58.1-60-68.47C210.14.91,183.64,2.51,158.61,7.21c-13.78,2.59-27.49,6.12-40.12,12.21C77.85,39,54.05,82.09,39,124.62c-20.53,58-29.12,124.15-3.2,180,4.14,8.92,9.26,17.64,16.8,24C64,338.1,79.38,341,94.13,342.75,126.94,346.57,148.25,343.76,181.26,342.77Z" transform="translate(-19.71 -3.39)" fill="#11249f" opacity="0.18" style="isolation:isolate"/><ellipse cx="127.34" cy="324.47" rx="88.14" ry="16.91" fill="url(#linear-gradient)"/><rect x="64.61" y="16.38" width="308.68" height="181.21" fill="#11249f"/><rect x="74.2" y="25.45" width="289.71" height="161.8" fill="url(#linear-gradient-2)"/><path d="M158.65,200.8s10.84-20.82,16.48-30.36,6.33-15.88,6.33-15.88l-14.08,6.24s-6,30.25-11.59,22.42-1-8.77-1-8.77-.43-10.62-1-13.87-5.68-21.36-12-21.94-7.8-2-7.8-2,.87-4.63,2.6-4.92a28.39,28.39,0,0,0,4.92-1.73l2.89-9,.29-8.39s1.15-5.2,2.31-6.36,4.33-18.43-4.77-21.68-18.87,15-18.87,15l-14.51,15.55,3,27.6A16.6,16.6,0,0,0,99.43,155c-2.8,10.66-6.27,32.87-6.27,32.87l1.46,5.64.71,6Z" transform="translate(-19.71 -3.39)" fill="url(#linear-gradient-3)"/><path d="M111.34,320.73a15.33,15.33,0,0,1-.89,3.51,17.12,17.12,0,0,1-3.58,6,10.63,10.63,0,0,1-6.1,3.28,5.12,5.12,0,0,1-3.55-.61,5.35,5.35,0,0,1-1.57-1.74,7.1,7.1,0,0,1-1-2.84c-.21-1.9.59-3.76,1.38-5.5l2.87-6.35a7.46,7.46,0,0,1,1.3-2.17,6.23,6.23,0,0,1,2.35-1.43,10,10,0,0,1,4.2-.83c1.54.08,3.39.77,4,2.25A14.08,14.08,0,0,1,111.34,320.73Z" transform="translate(-19.71 -3.39)" fill="#11249f"/><path d="M117.4,312.21a11,11,0,0,0-.81,7.77,38.21,38.21,0,0,1,1.25,4.16,14.6,14.6,0,0,1,0,3.17,1.7,1.7,0,0,0,.32,1.35,1.16,1.16,0,0,0,1.51-.08,3.35,3.35,0,0,0,.83-1.41l1.24-3.18c.08-.2.2-.44.41-.48a.69.69,0,0,1,.49.18,60.11,60.11,0,0,0,4.89,3.54,10.63,10.63,0,0,0,5.71,1.69,14.74,14.74,0,0,0,4.88-1.35c.91-.37,1.94-.85,2.22-1.79a2.26,2.26,0,0,0-.57-2.06,6.94,6.94,0,0,0-1.78-1.34,64.71,64.71,0,0,1-9.28-6.84,7.17,7.17,0,0,0-1.75-1.25,9.26,9.26,0,0,0-2.63-.48,11.19,11.19,0,0,1-4.8-1.78C119,311.64,117.78,311.45,117.4,312.21Z" transform="translate(-19.71 -3.39)" fill="#11249f"/><path d="M100.84,314.38c-.81,2.33-1.92,4.6-2.08,7.05a3.46,3.46,0,0,0,.31,1.91,3.15,3.15,0,0,0,2.46,1.38,7.49,7.49,0,0,0,6.71-3.43,15.17,15.17,0,0,0,2.29-7.48c.22-2.63.06-5.29.4-7.91,4.35-33.54,3.27-42.22,3-43.18-.51-2-2.79-2.88-4.81-3.2-2.19-.35-7.15-.32-7.46,2.28-.34,2.91,0,5.24.15,8.17C102.06,276.71,102.12,310.68,100.84,314.38Z" transform="translate(-19.71 -3.39)" fill="#bb826c"/><path d="M119.52,275c-.06,3.45-.38,6.89-.61,10.33-.59,8.42-.7,16.88-.81,25.32a12.53,12.53,0,0,0,.39,4.07,11.25,11.25,0,0,0,2.56,3.84,9.35,9.35,0,0,0,2.6,2.28,2.81,2.81,0,0,0,3.14-.25,4.09,4.09,0,0,0,.87-3.68,36.47,36.47,0,0,0-1.2-3.76c-.66-2.22,7.28-38.63,6.6-50.72a2.69,2.69,0,0,0-.39-1.5c-.24-.31-2.16.17-2.5,0a12.28,12.28,0,0,0-5.55-.81c-1.05.1-3.74.28-4.54,1.16-.94,1.05-.56,4.94-.58,6.33C119.48,270.11,119.57,272.56,119.52,275Z" transform="translate(-19.71 -3.39)" fill="#bb826c"/><path d="M97.23,228.69C98,239.8,99.65,250.9,99.15,262a2.38,2.38,0,0,0,.29,1.59,2.71,2.71,0,0,0,1,.78c2.36,1.15,5.24,1.23,8,1.29l22.25.44c1.33,0,2.9,0,3.64-.94a2.86,2.86,0,0,0,.51-1.33q4.49-22.92,7.08-46.05c.89-7.85,1.57-16-1.5-23.43-10.64,1.75-18.91.2-29.73-.51-3.83-.25-7.84,2.46-11.17,13.77A63,63,0,0,0,97.23,228.69Z" transform="translate(-19.71 -3.39)" fill="#3f3d56"/><path d="M118.24,265.68l14.62.29a9.47,9.47,0,0,1-2.13.15l-22.25-.44c-2.74-.05-5.63-.14-8-1.29a2.71,2.71,0,0,1-1-.78,2.53,2.53,0,0,1-.3-1.6c.51-11.11-1.19-22.21-1.91-33.32a63,63,0,0,1,2.33-21.06c3.33-11.31,7.34-14,11.17-13.77,2.33.15,4.54.35,6.68.54-2.83,1.25-5.64,4.93-8.09,13.23A62.78,62.78,0,0,0,107,228.69c.72,11.11,2.42,22.21,1.91,33.32a2.52,2.52,0,0,0,.29,1.6,2.82,2.82,0,0,0,1.06.78C112.61,265.54,115.49,265.63,118.24,265.68Z" transform="translate(-19.71 -3.39)" fill="url(#linear-gradient-4)"/><path d="M140.78,195.16c-1.95,0-3.87,0-5.79-.15,1.76-.13,3.58-.33,5.47-.64C140.57,194.63,140.68,194.9,140.78,195.16Z" transform="translate(-19.71 -3.39)" fill="url(#linear-gradient-5)"/><path d="M135,195a107.65,107.65,0,0,1-17.58-.61,6.46,6.46,0,0,1,3.07-.54C125.73,194.21,130.38,194.74,135,195Z" transform="translate(-19.71 -3.39)" fill="url(#linear-gradient-6)"/><path d="M150.05,163.21c.81,3.57.89,7.26,1.58,10.85.8,4.12,2.41,8.13,2.38,12.33a5.54,5.54,0,0,1-.25,1.86,4.36,4.36,0,0,1-2.42,2.42c-3,1.32-6.7-.26-8.73-2.86s-2.77-6-3.27-9.22c-1.36-8.89-1.4-17.91-1.42-26.9,0-1.67-6.22-9.27-4.18-9.83s9.59,6.87,10.49,8.33A43.29,43.29,0,0,1,150.05,163.21Z" transform="translate(-19.71 -3.39)" fill="#11249f"/><path d="M150.83,190.86c-2.91.95-6.3-.6-8.22-3.05-2-2.6-2.77-6-3.27-9.22-1.36-8.88-1.4-17.92-1.41-26.9,0-1.67-6.23-9.27-4.19-9.84.74-.2,2.1.56,3.61,1.68,1,2.48,5.68,16.15,5.69,17.37,0,9-1.3,8.81.06,17.69.5,3.26,1.23,6.62,3.27,9.22A9,9,0,0,0,150.83,190.86Z" transform="translate(-19.71 -3.39)" fill="url(#linear-gradient-7)"/><path d="M100.22,145.67a8,8,0,0,0-2,2.91c-.71,2.12.16,4.44,1.21,6.42,2.14,4,5,7.58,7.54,11.41s1.83,6.85,2,11.41c.22,5-4.57,12.32-5.53,17.23a7.36,7.36,0,0,0-.14,2.68c.25,1.34,6.62,1.17,7.7,2a15,15,0,0,0,7,2.67,28.39,28.39,0,0,0,16.87-2.2c2.57-1.26,5-3.12,6.08-5.78a16.73,16.73,0,0,0,.67-6.47c-.08-4.54-3.44-8.67-1.41-12.74,1.06-2.13,2.59-4,3.57-6.2a14.11,14.11,0,0,0-.67-12.7c-1.19-2-2.89-3.74-3.86-5.88-1.28-2.8-1.32-6.3-3.54-8.43-1.84-1.78-4.63-2-7.18-2.2-3.32-.22-3-1-6.34-1.23-2.75-.18-5.36-.74-8.07-.25a26.17,26.17,0,0,0-7.58,2.64C105.45,141.54,100.22,144.28,100.22,145.67Z" transform="translate(-19.71 -3.39)" fill="#11249f"/><path d="M130.72,201.78a30.1,30.1,0,0,1-12.71.62,15.12,15.12,0,0,1-7-2.66c-1.08-.84-7.45-.67-7.7-2a7.36,7.36,0,0,1,.14-2.68c1-4.91,5.75-12.23,5.53-17.23-.19-4.56.46-7.59-2-11.42S101.57,159,99.43,155c-1.06-2-1.93-4.31-1.2-6.43.37-1.12,2.31-5.08,8.31-7.62a36.54,36.54,0,0,1,7.59-2.64,17.55,17.55,0,0,1,4.8-.06c-1.4.5-2.77,1.11-4.14,1.68-6,2.55-7.94,6.5-8.33,7.63-.72,2.12.15,4.44,1.21,6.42,2.14,4,5,7.58,7.54,11.41s1.82,6.85,2,11.4c.21,5-4.57,12.32-5.53,17.24a7.35,7.35,0,0,0-.14,2.68c.25,1.34,6.62,1.17,7.7,2a15.22,15.22,0,0,0,7,2.65A33.29,33.29,0,0,0,130.72,201.78Z" transform="translate(-19.71 -3.39)" fill="url(#linear-gradient-8)"/><path d="M120.77,148.72a19.61,19.61,0,0,0,3.6,2.18c1.2.62,2.43,1.2,3.66,1.76a.72.72,0,0,0,.47.1.66.66,0,0,0,.33-.27,4.3,4.3,0,0,0,.31-4c-.47-1.32-1.27-2.5-1.82-3.79a14.18,14.18,0,0,0-1.77-3.87,8.43,8.43,0,0,0-2.79-1.9c-1.63-.82-5-2.38-6.18-.1-1,1.87.48,4.93,1.4,6.56A11.81,11.81,0,0,0,120.77,148.72Z" transform="translate(-19.71 -3.39)" fill="#fff"/><path d="M88.6,91A13.24,13.24,0,0,0,84,97.05c-1.41,3.38-2,7.44-.11,10.58a8.78,8.78,0,0,0,7.93,4,11.43,11.43,0,0,0,8-4.26c2.72-3.29,5.61-11,2.48-14.9C99.42,88.89,92.11,88.64,88.6,91Z" transform="translate(-19.71 -3.39)" fill="#3f3d56"/><path d="M88.6,91A13.24,13.24,0,0,0,84,97.05c-1.41,3.38-2,7.44-.11,10.58a8.78,8.78,0,0,0,7.93,4,11.43,11.43,0,0,0,8-4.26c2.72-3.29,5.61-11,2.48-14.9C99.42,88.89,92.11,88.64,88.6,91Z" transform="translate(-19.71 -3.39)" fill="url(#linear-gradient-9)"/><path d="M110.3,84.05a10.17,10.17,0,0,0-3.36.91,19.43,19.43,0,0,0-9.12,7.46A25.47,25.47,0,0,0,95,99.66a25.16,25.16,0,0,0-.74,11,25.66,25.66,0,0,0,3,7.34,21.35,21.35,0,0,0,2.23,3.34A21.89,21.89,0,0,0,104,125a15.65,15.65,0,0,0,4.63,2.38c4.08,1.09,8.37-1,11.65-3.61a27.45,27.45,0,0,0,8-10.17,21.56,21.56,0,0,0,1.55-12.74,27.85,27.85,0,0,0-1.85-5.6c-1.56-3.6-3.6-6.3-7.46-7.41C116.93,86.84,114.25,83.8,110.3,84.05Z" transform="translate(-19.71 -3.39)" fill="#3f3d56"/><path d="M139.15,119.11c-.6,4.29-2.53,8.73-6.33,10.8-2,1.08-4.46,1.54-5.79,3.36-1.49,2-.93,4.83-.68,7.33a2.83,2.83,0,0,1-.1,1.33,2.7,2.7,0,0,1-1.8,1.27,17.11,17.11,0,0,1-6.32.75,1.78,1.78,0,0,1-1.92-1.66c-.81-3-.61-6.31-1.75-9.24a42.4,42.4,0,0,0-2.4-4.45,34.55,34.55,0,0,1-3.51-12.88,79.84,79.84,0,0,1-.33-13.3,12.2,12.2,0,0,1,.69-3.89,12.36,12.36,0,0,1,2.3-3.4,19.13,19.13,0,0,1,6.1-5.17,12.8,12.8,0,0,1,9.91,0,20.48,20.48,0,0,1,8,6.1C140.43,102.25,140.2,111.47,139.15,119.11Z" transform="translate(-19.71 -3.39)" fill="#bb826c"/><circle cx="98.96" cy="109.15" r="7.52" fill="#fff" opacity="0.46"/><circle cx="115.11" cy="107.86" r="6.96" fill="#fff" opacity="0.46"/><path d="M119.23,79.63a20.7,20.7,0,0,1,12.28-.94c5.43,1.24,10.54,5,12.09,10.39a15.15,15.15,0,0,1-.42,9,25.87,25.87,0,0,1-4.61,7.88.67.67,0,0,1-.39.28c-.2,0-.37-.13-.52-.26a8.46,8.46,0,0,0-3.4-1.52c-6.16-1.82-11.91-4.78-17.75-7.47-1.38-.63-3.05-1.24-4.33-.42a4.46,4.46,0,0,0-1.57,2.83,55.21,55.21,0,0,0-1.83,12,29.71,29.71,0,0,1-4.23-8,21.88,21.88,0,0,1-1.15-7.33c0-1.77,0-3.68,1.06-5.12s2.48-1,4-1.6c1.21-.51,1.75-2.25,2.48-3.25A19.52,19.52,0,0,1,119.23,79.63Z" transform="translate(-19.71 -3.39)" fill="#3f3d56"/><path d="M119.23,79.63a20.7,20.7,0,0,1,12.28-.94c5.43,1.24,10.54,5,12.09,10.39a15.15,15.15,0,0,1-.42,9,25.87,25.87,0,0,1-4.61,7.88.67.67,0,0,1-.39.28c-.2,0-.37-.13-.52-.26a8.46,8.46,0,0,0-3.4-1.52c-6.16-1.82-11.91-4.78-17.75-7.47-1.38-.63-3.05-1.24-4.33-.42a4.46,4.46,0,0,0-1.57,2.83,55.21,55.21,0,0,0-1.83,12,29.71,29.71,0,0,1-4.23-8,21.88,21.88,0,0,1-1.15-7.33c0-1.77,0-3.68,1.06-5.12s2.48-1,4-1.6c1.21-.51,1.75-2.25,2.48-3.25A19.52,19.52,0,0,1,119.23,79.63Z" transform="translate(-19.71 -3.39)" fill="url(#linear-gradient-10)"/><path d="M106,109.58a3.26,3.26,0,0,0-2.19,2.39c-.64,2.29.37,4.71,1.63,6.73.71,1.13,1.72,2.33,3.06,2.3a1.28,1.28,0,0,0,1-.39,2,2,0,0,0,.15-1.76,31.41,31.41,0,0,1-.55-6.71A2.52,2.52,0,0,0,106,109.58Z" transform="translate(-19.71 -3.39)" fill="#bb826c"/><path d="M107.59,115.11a1.42,1.42,0,0,1-.7-1.1c0-.4,0-.85-.21-1.16a1.06,1.06,0,0,0-.77-.32,1.17,1.17,0,0,0-.69.14,1.3,1.3,0,0,0-.33,1.31,5.77,5.77,0,0,0,2.32,3.65,1.48,1.48,0,0,0,1.14.34,1.24,1.24,0,0,0,.77-1.33,5.87,5.87,0,0,0-.33-1.55A1.4,1.4,0,0,1,107.59,115.11Z" transform="translate(-19.71 -3.39)" fill="url(#linear-gradient-11)"/><path d="M96.55,222.15c.75,2.51,1.36,5.11,2.76,7.31s3.81,4,6.41,3.82a2.58,2.58,0,0,0,1.53-.51,2.89,2.89,0,0,0,.73-1c1.22-2.45,1.5-5.58-.11-7.78a32.63,32.63,0,0,0-2.63-2.63c-2.66-2.86-2.88-7.13-3.48-11a89.9,89.9,0,0,0-3.25-12.8A5.29,5.29,0,0,0,97.15,195a5.42,5.42,0,0,0-2.22-.93c-2.35-.59-6.61-2.94-7.18.31-.48,2.73,1.34,7,2.17,9.53C91.91,210,94.5,216,96.55,222.15Z" transform="translate(-19.71 -3.39)" fill="#bb826c"/><path d="M154,171.21c.18-.05-.09-.26-.27-.21a9.07,9.07,0,0,0-2.14.81,3,3,0,0,0-1.42,1.73,4.28,4.28,0,0,0,.05,1.85L152,186a3.32,3.32,0,0,0,.89,2.08c1,.8,2.41.3,3.49-.32q1-.57,1.92-1.23a2,2,0,0,0,1-2.41,54.56,54.56,0,0,0-1.68-10.33c-.38-1.27-1-2.69-2.33-3a4.12,4.12,0,0,0-2.43.48" transform="translate(-19.71 -3.39)" fill="#11249f"/><path d="M159.1,169.76a13,13,0,0,0-3.61,4.28,10.05,10.05,0,0,0-.62,3.57,11.63,11.63,0,0,0,.92,5.61,3.09,3.09,0,0,0,1.87,1.76c1.18.28,2.31-.56,3.19-1.4,5.16-4.86,8.62-11.21,11.8-17.54a6.94,6.94,0,0,1,1.43-2.13,8.18,8.18,0,0,1,2.14-1.2c2.68-1.25,5.25-3.49,5.51-6.43a3.15,3.15,0,0,0-.27-1.72c-.67-1.27-2.34-1.56-3.78-1.64-1.25-.07-2.52-.11-3.78-.1a6.21,6.21,0,0,0-2.87.51c-2.67,1.41-2,5.26-3.65,7.47A65,65,0,0,1,159.1,169.76Z" transform="translate(-19.71 -3.39)" fill="#bb826c"/><path d="M92,161.42c-1.94,6.41-2.6,13.14-3,19.83a19.54,19.54,0,0,0,.52,7.36c.78,2.35,2.64,4.5,5.08,4.91A4.38,4.38,0,0,0,98.8,192a7.1,7.1,0,0,0,1.1-3.54A57.42,57.42,0,0,1,102,177c1.18-3.41,3.08-6.52,4.69-9.75,2.93-5.89,5.22-15.93-2.3-19.67C97.43,144.12,93.43,156.7,92,161.42Z" transform="translate(-19.71 -3.39)" fill="#11249f"/><path d="M106.71,167.27c-1.61,3.23-3.5,6.33-4.68,9.75a56.57,56.57,0,0,0-2.12,11.44,7.56,7.56,0,0,1-1.1,3.54,4.39,4.39,0,0,1-4.19,1.52,6.57,6.57,0,0,1-4.56-3.65,5.56,5.56,0,0,0,1.74.62A4.39,4.39,0,0,0,96,189a7.44,7.44,0,0,0,1.1-3.54A56.67,56.67,0,0,1,99.21,174c1.18-3.41,3.08-6.52,4.69-9.75,2.23-4.47,4.08-11.36,1.53-16C111.71,152.29,109.51,161.66,106.71,167.27Z" transform="translate(-19.71 -3.39)" fill="url(#linear-gradient-12)"/><path d="M93.16,187.88a31.16,31.16,0,0,0-3-1.23,8.7,8.7,0,0,0-2.27-.32,1.22,1.22,0,0,0-.6.09,1.31,1.31,0,0,0-.49.55,10.57,10.57,0,0,0-1.34,5.8,1.94,1.94,0,0,0,.23.93,2,2,0,0,0,.83.63c3.65,1.87,7.74,3.27,11.78,2.63a2.65,2.65,0,0,0,1.85-.92,3.32,3.32,0,0,0,.36-1.43,11.76,11.76,0,0,1,1.14-3.8c.51-1,.13-1.09-.82-1.21s-1.78-.22-2.66-.37A22.28,22.28,0,0,1,93.16,187.88Z" transform="translate(-19.71 -3.39)" fill="#11249f"/><polygon points="155.27 150.86 191.85 98.68 192.82 99.29 157.7 151.44 155.27 150.86" fill="#bb826c"/><polygon points="155.27 150.86 191.85 98.68 192.82 99.29 157.7 151.44 155.27 150.86" fill="url(#linear-gradient-13)"/><path d="M170.46,163.34l-6.07,8.89s1.41,2,2.82,1.19l6.07-9.64Z" transform="translate(-19.71 -3.39)" fill="url(#linear-gradient-14)"/><path d="M184.58,90a2.4,2.4,0,0,0-.16-.9,6.73,6.73,0,0,0-.38-.83,1.4,1.4,0,0,1-.07-.42q0-.27-.24-.24v.32a.87.87,0,0,0,.1.42,4,4,0,0,0,.22.4c.09.13.17.26.25.4a.94.94,0,0,1,.11.45h-.82l-.2-.23a.09.09,0,0,0,0,.06v.06a.24.24,0,0,0,.07.18.24.24,0,0,1,.07.18.43.43,0,0,1-.06.22.18.18,0,0,1-.17.1l-.11,0-.37,0a1.2,1.2,0,0,1-.34-.07l-.24,0-.38-.07a2.79,2.79,0,0,0-.38-.07l-.25,0a1.25,1.25,0,0,1-.27-.09l-.26-.11s0,0-.09-.06a.09.09,0,0,1,0-.05V88l.2.11a1.65,1.65,0,0,0,.07-.21.8.8,0,0,0,0-.21c.06-.14.12-.21.19-.23l.18,0h.16c.05,0,.07-.07.07-.19a.25.25,0,0,0-.2-.27l-.4-.07v0a.89.89,0,0,1,.13-.41,1.7,1.7,0,0,1,.33-.38,1.92,1.92,0,0,1,.42-.28.94.94,0,0,1,.43-.12h.17l.23.09.17,0v.69a.56.56,0,0,1-.3-.08.68.68,0,0,0-.27-.07h-.09s0,.06-.1.1a.46.46,0,0,0-.12.13v.11l.22-.11V87l-.22-.12V87c0,.19,0,.31.08.35a.51.51,0,0,0,.21.1l.26.06a.33.33,0,0,1,.21.23v-.8a.38.38,0,0,0,.2-.27,1,1,0,0,0,0-.34c0-.12,0-.24-.08-.37a.71.71,0,0,1,0-.35c0-.06.06-.07.14,0l.25.1.3.12a.64.64,0,0,0,.24.07.1.1,0,0,1,.07.06s.06.06.08.06,0-.16,0-.13a.87.87,0,0,0,.11.17l.21.28a.75.75,0,0,0,.27.22l.53.07a5.45,5.45,0,0,0,.55,0h.08a.18.18,0,0,0,.16-.06.26.26,0,0,1,.18,0H186a.21.21,0,0,1,.07.15.32.32,0,0,0,0,.16s.1,0,.2,0a1.22,1.22,0,0,1,.27,0,.71.71,0,0,1,.22.07.24.24,0,0,1,.1.23H186c-.06,0-.09.05-.09.14l.09.17v.34c0,.25.14.38.31.41a.67.67,0,0,1,.37.16.54.54,0,0,1,.08.21.35.35,0,0,1,0,.21h.2v-.7l.26-.09v-.26a.05.05,0,0,0,.05,0,.09.09,0,0,0,.06,0l-.19.09c-.08,0-.13,0-.15,0l-.11-.1-.12-.1a2.07,2.07,0,0,0,.36-.31.44.44,0,0,0,.1-.49.21.21,0,0,1,.09.06s.08.06.1.06l-.22-.09a.2.2,0,0,0,.2-.13.21.21,0,0,1,.22-.12c.13,0,.24.1.33.32a.81.81,0,0,1,.07.5,1.29,1.29,0,0,1,.33-.33.74.74,0,0,1,.41-.13v.63s0,0,.05,0H189a.71.71,0,0,0,.34-.24.44.44,0,0,1,.39-.19l.32,0a.5.5,0,0,1,.25.07s.06.07.07.17a.34.34,0,0,0,.05.17s0,0,0,0h.06a.31.31,0,0,0,.27-.14.48.48,0,0,0,.1-.31.4.4,0,0,0,.15.13c.09,0,.13.08.13.1h.14l.15-.14a.64.64,0,0,1,.08-.2l.12-.23a1.56,1.56,0,0,1,.41-.3l.44-.24.25-.1a2.93,2.93,0,0,0,.31-.12.85.85,0,0,0,.23-.06.36.36,0,0,0,.23-.2s0-.07,0-.2,0-.23.06-.31v-.11l-.18-.06a.37.37,0,0,1-.16-.06l-.14-.22s-.07-.13-.2-.27a1,1,0,0,1-.2-.27,1,1,0,0,1,0-.34c0-.19,0-.31,0-.34l-.21-.2c-.13-.12-.2-.19-.21-.23a1.83,1.83,0,0,1-.2-.27,2.15,2.15,0,0,1-.17-.27c-.08-.09-.13-.13-.16-.11a.56.56,0,0,1-.24,0v.42h-.06a.05.05,0,0,1-.05,0l-.13-.07a.41.41,0,0,0-.16,0H191c-.08,0-.12,0-.12.11a1,1,0,0,0,0,.17.3.3,0,0,0,.07.17v.12l-.21.21-.22.21.12.23-.06,0h-.06l-.14,0c-.06,0-.08,0-.08-.12a.24.24,0,0,1,0-.13l.07-.1a.41.41,0,0,1-.26,0,.6.6,0,0,1-.22-.12.66.66,0,0,1-.19-.18,1.21,1.21,0,0,1-.1-.16.41.41,0,0,1-.25.34.94.94,0,0,1-.43.12c-.09,0-.14,0-.14-.09a.2.2,0,0,0-.06-.14l-.11-.06-.11,0v-.09a.45.45,0,0,1,0-.14l0-.06a.24.24,0,0,0,0-.07.72.72,0,0,0,0-.18,2.77,2.77,0,0,0-.42,0,.46.46,0,0,0-.34.28.62.62,0,0,1-.05.18c0,.09,0,.14,0,.16a.81.81,0,0,1-.5.19l-.55,0a.32.32,0,0,1-.31-.17c-.06-.12-.11-.25-.17-.4a1.87,1.87,0,0,1-.28.38.7.7,0,0,1-.4.07,2.16,2.16,0,0,1-.87-.21.67.67,0,0,1-.46-.64v-.25s0,0,.11-.06l.14,0,.23-.05a.67.67,0,0,0,.2-.07.52.52,0,0,0,.05-.2,1.61,1.61,0,0,0,0-.25.91.91,0,0,0,0-.31,1,1,0,0,0,0-.32.42.42,0,0,0,.37-.37,1.21,1.21,0,0,0,.33,0,.77.77,0,0,0,.29,0c.1,0,.18-.09.26-.22a.76.76,0,0,0,.11-.29l.2.2a.14.14,0,0,0,.1-.21c-.05-.1,0-.18.13-.24a.1.1,0,0,0,.11.11l.1,0c.05,0,.08-.06.1-.06l.09,0a.38.38,0,0,1,.36.2.36.36,0,0,0,.32.2,1.44,1.44,0,0,0,.32-.07.45.45,0,0,0,.27-.19.44.44,0,0,1,0-.14l.06-.2.11,0,.11,0a.11.11,0,0,1,.12-.12v-.11a1.16,1.16,0,0,1,.82-.78,5.71,5.71,0,0,1,1.19-.13l.21,0h.22a2.51,2.51,0,0,1-.29.21l-.28.22-.11,0V79.1h-.37a1.07,1.07,0,0,1-.05.16,1.25,1.25,0,0,0,0,.18l.13.13.1.1a.24.24,0,0,0,.11,0l.12-.07a1.78,1.78,0,0,1,.34-.06,2,2,0,0,0,.34-.06.49.49,0,0,1,0-.31.47.47,0,0,1,.12-.18.53.53,0,0,1,.14-.12.12.12,0,0,0,.07-.1l0,0a.7.7,0,0,0-.08-.16.56.56,0,0,1-.09-.15.22.22,0,0,0,0-.09.19.19,0,0,1,0-.08s.05-.1.14-.17a2.62,2.62,0,0,1,.32-.23l.32-.23a.49.49,0,0,0,.19-.2l.07-.18a1.67,1.67,0,0,1,.07-.19.26.26,0,0,0,.11-.08l.11-.11,0-.06,0,0h-.26v-.35a.38.38,0,0,0-.14-.33.07.07,0,0,1,0,.06s0,0,0,.05h-.09c-.15,0-.23-.06-.24-.2a.26.26,0,0,0-.16-.25h-.28a.27.27,0,0,1-.2-.21.31.31,0,0,0-.2-.24.43.43,0,0,0-.25.07.56.56,0,0,1-.26.07h-.11a.85.85,0,0,0-.23-.09,1,1,0,0,0-.23,0h-1.41l-.1.07a.29.29,0,0,0-.1.07c-.44.09-.8.15-1.09.18a4.55,4.55,0,0,0-1,.24s-.05,0-.09.06l-.05.06-.09,0-.14.06a.37.37,0,0,1-.16.06c-.08,0-.12,0-.12.05a1.88,1.88,0,0,0-.37.23c-.15.11-.23.19-.23.23v.11l.3,0c.12,0,.18,0,.18.17a.19.19,0,0,1-.1.16,2.11,2.11,0,0,1-.22.14,1.22,1.22,0,0,1-.24.11c-.08,0-.12.07-.12.1v.43a2.49,2.49,0,0,1,0,.32,3.22,3.22,0,0,1-.07.36l-.58.08a3.89,3.89,0,0,1-.53,0,1.24,1.24,0,0,1-.64-.14c-.16-.09-.24-.3-.24-.62v0l0,0s.05,0,.09-.06l.11-.11a2,2,0,0,1,0-.3c0-.16.06-.26.07-.3l.12-.08v-.17a.89.89,0,0,0-.06-.31,1.15,1.15,0,0,1-.06-.37v0a1.71,1.71,0,0,0,.06-.26c0-.11,0-.18.06-.19l.17,0c.09,0,.14,0,.14-.06a.48.48,0,0,0,.07-.28.52.52,0,0,1,.07-.29.68.68,0,0,1,.26-.1.54.54,0,0,1,.25,0,.17.17,0,0,1,.14.14,1.89,1.89,0,0,1,.05.23.72.72,0,0,0,0,.21c0,.07.1.1.22.1s.14-.06.14-.2v-.22a.48.48,0,0,0-.07-.27.64.64,0,0,0-.17-.16.59.59,0,0,1-.17-.13.23.23,0,0,1-.07-.18c0-.06,0-.13.17-.21a2.78,2.78,0,0,1,.38-.25,3.89,3.89,0,0,1,.42-.19,1.25,1.25,0,0,1,.27-.09.26.26,0,0,1,.23.13.3.3,0,0,0,.26.13h.08a.09.09,0,0,0,.06,0,1.85,1.85,0,0,0,.24-.16l.21-.15s.1,0,.19,0a.7.7,0,0,1,.15.14v-.34a.29.29,0,0,0,.27-.12,1,1,0,0,0,.11-.3q0-.17.09-.3a.2.2,0,0,1,.21-.13h.19c.06,0,.1,0,.1.1a.7.7,0,0,1-.09.23l-.11.22v.06a0,0,0,0,0,0,0,.3.3,0,0,0,.24-.09,1.74,1.74,0,0,0,.11-.18c0-.07,0-.13.07-.19a.12.12,0,0,1,.11-.08l.2,0,.23.09a.56.56,0,0,0-.1.18,1,1,0,0,0,0,.19.61.61,0,0,0,.12.32.37.37,0,0,0,.3.19s.09-.09.22-.27a1.17,1.17,0,0,1,.24-.3l-.34-.31.31-.17a.51.51,0,0,1,.25-.06h.09l0,.06a.09.09,0,0,0,.06,0h.23a.73.73,0,0,1,.27.24.35.35,0,0,1,.07.33c.21,0,.31-.15.31-.32a1.13,1.13,0,0,1,.11-.48.85.85,0,0,1,.33-.2,1.35,1.35,0,0,1,.38-.11h.58a.54.54,0,0,1,.5.23.94.94,0,0,0,0,.1.52.52,0,0,1,.07.12l.12.06.08,0v.23a.28.28,0,0,0,.16.14l.27.1.27.07.18,0v0a1.36,1.36,0,0,1,0,.36.87.87,0,0,0-.06.32c0,.15.09.23.28.23h.09l-.14-.2.28-.1a1.17,1.17,0,0,0,.28-.13v.12a.36.36,0,0,1-.1.27.33.33,0,0,0-.1.24,0,0,0,0,0,0,0h.06a.55.55,0,0,1,.16-.1.4.4,0,0,0,.15-.13h.12a1.12,1.12,0,0,0,0,.24,1.54,1.54,0,0,0,.07.24c.06.13.1.17.14.1s.1-.06.2,0,0,0,.1.12a.93.93,0,0,0,.1.16,2.23,2.23,0,0,0,.2.18c.09.09.14.15.14.19l-.06.14-.06.17s0,0-.1.07a.31.31,0,0,1-.12,0q-.09,0-.09.12a1.6,1.6,0,0,1,0,.17c0,.09,0,.16,0,.19a4,4,0,0,0,0,.46c0,.07,0,.12,0,.13l0,0a.38.38,0,0,1,0,.16c-.1,0-.15,0-.17,0l-.06,0-.08,0a.49.49,0,0,0-.2,0c-.08,0-.12.07-.13.23s0,.31,0,.49a1.93,1.93,0,0,1-.12.5.33.33,0,0,1-.34.23c-.11,0-.16-.05-.14-.13a1,1,0,0,0,0-.21h-.4v.45l.19,0c.1,0,.15,0,.15.11a1.16,1.16,0,0,1,0,.16.44.44,0,0,1-.05.18.47.47,0,0,0-.09.12l-.05.08a.44.44,0,0,0-.06.17.37.37,0,0,1-.06.17s-.07,0-.17,0a.47.47,0,0,0-.2-.07s0,.16,0,.37,0,.33,0,.37a.33.33,0,0,1,0,.14c0,.05-.05.08-.07.08a.73.73,0,0,1-.2-.38,2.07,2.07,0,0,1-.06-.5c0-.17,0-.33,0-.48s0-.28,0-.4,0-.08-.11-.08h-.32s0,.14,0,.31a1.12,1.12,0,0,0,.06.31l.11.12v.22a.38.38,0,0,1-.17.1c-.07,0-.12,0-.14,0a2,2,0,0,1,.14.76h-.2v-.54l-.28.2v-.31a1,1,0,0,1,0-.34.78.78,0,0,0,.05-.28V79a1.43,1.43,0,0,0-.06-.31.81.81,0,0,1,0-.2l-.06-.06,0,0,0,0a.09.09,0,0,1-.06,0l-.06.06a.1.1,0,0,0-.11.11v2.35c.08,0,.11,0,.11,0a.77.77,0,0,0,.15-.1s.08-.08.08-.1h.09l.38.06.47.06.39,0,.2,0a2.45,2.45,0,0,0,.37.13l.31.1a3.37,3.37,0,0,1,.34.27,3.85,3.85,0,0,1,.34.3l.09,0,.11.06c.1.08.13.14.1.2a.84.84,0,0,0,0,.34h.37l-.14-.09a1.06,1.06,0,0,1,.24.16.34.34,0,0,1,.15.27l-.12,0a.19.19,0,0,0-.13,0c-.1,0-.14.09-.14.21v.21h-.09l-.31-.65-.09,0a.4.4,0,0,0-.29.12.64.64,0,0,0-.19.25.4.4,0,0,1,.17,0,.37.37,0,0,1,.17,0s.06,0,.13.13a1.94,1.94,0,0,1,.21.3c.08.11.15.22.21.32a.65.65,0,0,1,.1.19v0a.71.71,0,0,1-.15.1.38.38,0,0,0-.16.12l0,.06,0,.06a1.74,1.74,0,0,1,.16.18.59.59,0,0,0,.15.16.31.31,0,0,0,.12-.22c0-.1.06-.15.14-.15h0s0,0,0,0h0a.21.21,0,0,1,.09.05.09.09,0,0,1,0,.06.28.28,0,0,1-.07.2l-.16.1a.42.42,0,0,0-.15.11.26.26,0,0,0-.08.19V85l.06.17.06.17s-.06.1-.17.14l-.17.06-.2,1.33c0,.07-.07.13-.2.17a.35.35,0,0,0-.25.28.71.71,0,0,0-.08.33q0,.24-.24.21v-.2a1.14,1.14,0,0,0-.27.21.88.88,0,0,0-.1.22,1.74,1.74,0,0,1-.05.22.51.51,0,0,1-.14.23.33.33,0,0,1-.12.06l-.11,0a.53.53,0,0,0-.27.48.73.73,0,0,1-.16.51,1.2,1.2,0,0,1-.17-.16.32.32,0,0,1-.08-.21v-.06s0,0,.07,0a.09.09,0,0,0,.07-.09h-.34l-.31.68c0-.09,0-.21-.07-.35a.25.25,0,0,0-.27-.21c-.14,0-.21,0-.22.17a1.4,1.4,0,0,0,0,.35,1.38,1.38,0,0,1,0,.35c0,.12-.08.17-.21.17s0-.13,0-.29a1,1,0,0,0-.05-.3c0-.15-.08-.23-.19-.23a.2.2,0,0,0-.22.14,2.55,2.55,0,0,0-.07.32,2.81,2.81,0,0,1-.08.31.26.26,0,0,1-.26.14.66.66,0,0,1-.52-.24c-.15-.16-.26-.24-.36-.24a.09.09,0,0,0-.06,0,1,1,0,0,1,0,.18c0,.1,0,.17-.07.18s-.07,0-.11,0l-.12,0a.09.09,0,0,0-.08.06.68.68,0,0,0,0,.26,2.32,2.32,0,0,1-.47-.1c-.21-.07-.34-.14-.38-.22l-.43.17.12.12h-.14l-.12,0c-.17,0-.27,0-.31-.09a.44.44,0,0,1-.08-.2l-.06-.2s-.1-.08-.23-.08a2.48,2.48,0,0,0,.06.27c0,.16,0,.25-.14.27a.27.27,0,0,0-.13,0,.22.22,0,0,1-.13.06,4.7,4.7,0,0,1-.82-.07l-.85-.16-.1,0a.22.22,0,0,0-.1,0,1.35,1.35,0,0,0-.4,0h-.39l-.16-.09a.19.19,0,0,1-.1-.19Zm-3.26-2.27s0,0,0,0,0,.07,0,.07S181.43,87.7,181.32,87.7Zm.45-.14c-.06,0-.08,0-.08.12s0,.13.08.13.06,0,.06-.13S181.81,87.56,181.77,87.56Zm1,1.44,0-.11a.17.17,0,0,0,0-.13l-.1-.1Zm.11.88h.31v-.11h-.31Zm.31-2v-.12h-.11Zm0,.45c-.06,0-.08,0-.08.11s0,.12.08.12.09,0,.09-.12S183.22,88.35,183.16,88.35Zm0-.77h.11l.16-.07.16-.07s-.06,0-.1-.13a2,2,0,0,1-.1-.18l-.06-.11-.06-.12h-.11Zm.11,1.08c-.05,0-.08,0-.08.11s0,.12.08.12.09,0,.09-.12S183.33,88.66,183.27,88.66Zm0-11.43h.14a.26.26,0,0,0-.14-.23Zm.29,11.54a1,1,0,0,0,.11.17l.11.15L184,89a.64.64,0,0,0-.12-.14c-.05-.06-.09-.09-.11-.09h-.14Zm0-13a1.5,1.5,0,0,0,0,.2.2.2,0,0,0,.1.17c.07,0,.11-.07.11-.11v0s0,0,0,0,0,0,0,0,0-.09-.1-.12A.47.47,0,0,0,183.64,75.78Zm0,.94a.23.23,0,0,0,0,.09l.06.11h.11l-.11-.45a.21.21,0,0,0-.09.14v.11ZM184,75.5a.28.28,0,0,0,.11.24.35.35,0,0,0,.25.1v-.06l0,0v0a.7.7,0,0,0-.09-.23c-.06-.11-.09-.19-.11-.22S184,75.35,184,75.5ZM184,90c.06,0,.09,0,.09.14s0,.14-.09.14-.06,0-.06-.14S184,90,184,90Zm.11-2.33a.46.46,0,0,0,.09.27l.18.24a1.06,1.06,0,0,1,.16.23.34.34,0,0,1,0,.28.5.5,0,0,0,.34-.2c0-.07,0-.21-.1-.41a2.6,2.6,0,0,0-.1-.35.41.41,0,0,0-.3-.19l-.27-.07Zm.23-1a.36.36,0,0,0,0,.18.2.2,0,0,0,.1.07l.15.06a.31.31,0,0,1,.17.14.67.67,0,0,1,.13.41.26.26,0,0,0,.3.27h.06s0,0,0,0a.59.59,0,0,0,.09-.31c0-.17,0-.28,0-.34s-.14-.31-.41-.37A3.22,3.22,0,0,0,184.38,86.68Zm.06-13.05.2.08-.09.12c-.07,0-.11,0-.11-.12l0,0Zm0,3.6.42-.11a.13.13,0,0,0-.11-.1l-.14,0h-.17Zm.31-3.18c-.06,0-.09,0-.09.1s0,.1.09.1.08,0,.08-.1S184.81,74.05,184.75,74.05Zm.08,15.18a.26.26,0,0,0,.2.14v-.14Zm.34-13.64s-.08,0-.08.11,0,.11.08.11.09,0,.09-.11S185.23,75.59,185.17,75.59Zm.37,12.59a.94.94,0,0,0,.12.47,2.35,2.35,0,0,1,.17.44s0,0,0,0l.06-.06a1.29,1.29,0,0,0-.06-.2,1.36,1.36,0,0,1,0-.22c0-.08-.05-.16-.07-.26A.2.2,0,0,0,185.54,88.18Zm.29-.4s-.05-.06-.14-.06-.14,0-.12.06a.2.2,0,0,0,.14.06A.12.12,0,0,0,185.83,87.78Zm-.09-4.93h.57v-.14a1,1,0,0,1-.34-.06.35.35,0,0,1-.23-.23Zm.2,6.24c-.06,0-.08,0-.08.12s0,.13.08.13.06,0,.06-.13S186,89.09,185.94,89.09Zm.09-1s-.06,0-.06.13,0,.13.06.13.08,0,.08-.13S186.08,88.09,186,88.09Zm.08.63a.05.05,0,0,0,0,0,2.07,2.07,0,0,1,.06.26c0,.11,0,.18,0,.2a.4.4,0,0,0,.13.06c.07,0,.1,0,.1,0s.16.16.13.2,0,.06.18.06a.93.93,0,0,0,0-.24,1.66,1.66,0,0,0-.16-.33,1.7,1.7,0,0,0-.21-.28.33.33,0,0,0-.23-.12Zm.11-7a.67.67,0,0,0,.12.36.34.34,0,0,0,.31.18.71.71,0,0,0-.1-.37A.36.36,0,0,0,186.22,81.71Zm.2-7.57s-.08,0-.08.07,0,.06.08,0S186.5,74.18,186.42,74.14Zm0,12.45h-.11v-.11Zm.4-13.41h-.23l.11-.12Zm-.14,14.26s0,0,0,.13,0,.13,0,.13-.09,0-.09-.13S186.65,87.44,186.71,87.44Zm0-6.69s0,0,0,.13,0,.11,0,.09a.09.09,0,0,0,.06-.09A.18.18,0,0,0,186.73,80.75Zm.12.76c0,.1,0,.15.11.15h.12a2.46,2.46,0,0,1,.15-.42,3.74,3.74,0,0,0,.16-.38l.11-.1.14-.1h-.11a.4.4,0,0,0-.37.2,3.4,3.4,0,0,0-.17.34C186.91,81.37,186.87,81.48,186.85,81.51Zm.4,7.41s0,0,0,0,0,.07,0,0,.11,0,.11-.06S187.32,88.92,187.25,88.92Zm.25.31a.43.43,0,0,0,.14.34l.2-.2a.21.21,0,0,0-.17-.13Zm1-6.16q.09.06,0,.15s-.05,0-.05-.09S188.48,83.06,188.52,83.07Zm.09-3.51s.08,0,.08.11,0,.11-.08.11-.06,0-.06-.11S188.57,79.56,188.61,79.56Zm0,2.32s-.06,0-.06.14,0,.18.06.15,0-.07,0-.15A.17.17,0,0,0,188.61,81.88Zm0,6.61s-.06,0-.06.1,0,.1.06.1.08,0,.08-.1S188.66,88.49,188.61,88.49Zm.11-9.13c.06,0,.09,0,.09.1s0,.1-.09.1-.09,0-.09-.1S188.66,79.36,188.72,79.36Zm.31,8.9s-.05,0-.05.12,0,.11.05.11.09,0,.09-.11S189.09,88.26,189,88.26Zm.37-8.36h.31v-.12h-.31Zm.31-6.64a.53.53,0,0,0,.1.14l.1.12v-.63a.15.15,0,0,0-.15.11.68.68,0,0,0,0,.23Zm.2-1.19.23.23H190a.22.22,0,0,1-.22-.12Zm.34,7.91,0,0,0,0c0-.08,0-.12-.11-.12l-.12.12Zm-.11,2.67v-.23l-.12.12Zm.11-8.6a.66.66,0,0,0,.14-.17.31.31,0,0,0,.09-.17s0-.08-.11-.08l-.06,0-.06,0Zm.23,8s0,0,0,0,0,.07,0,0,.06,0,.06,0S190.52,82.08,190.48,82.08Zm.11-2.41c-.05,0-.08,0-.08.11s0,.12.08.12.09,0,.09-.12S190.65,79.67,190.59,79.67Zm.12,2.87c-.06,0-.09,0-.09.11s0,.11.09.11.08,0,.08-.11S190.76,82.54,190.71,82.54Zm.19-2.76c-.17,0-.25.1-.25.29v.42c.13,0,.2,0,.2-.12a.86.86,0,0,1,.05-.27l.06,0,.06,0a.09.09,0,0,0,0,.05l0,.06h.06l.08,0h.09C191.33,79.93,191.19,79.78,190.9,79.78Zm-.08,2c-.06,0-.09,0-.09.1s0,.1.09.1.06,0,.06-.1S190.86,81.77,190.82,81.77Zm.06.31a.41.41,0,0,0,.19.36.85.85,0,0,0,.43.12c0-.21-.06-.34-.17-.39A1,1,0,0,0,190.88,82.08ZM191.1,73c0,.18.07.26.2.26h.09a.7.7,0,0,0-.09-.17A.22.22,0,0,0,191.1,73Zm.29.6c-.19,0-.29.08-.29.23h.29Zm0,7.83h.11a1,1,0,0,0,0-.24.93.93,0,0,0-.08-.22Zm0,2.27c0-.13.05-.2.17-.2a.49.49,0,0,0,.07.28q.06.12.27.06a.93.93,0,0,1-.05.24.34.34,0,0,1-.18.24.64.64,0,0,1-.2-.31,1,1,0,0,1-.08-.28Zm.2-.63s0,0,0,.12,0,.11,0,.11-.06,0-.06-.11S191.55,83.07,191.59,83.07Zm.08-3.85s0-.06,0-.06,0,0,0,.06,0,0,0,0S191.67,79.25,191.67,79.22Zm0-4.12a.68.68,0,0,0,0,.19c0,.06.07.1.17.1h0l.07-.07a.13.13,0,0,0,0-.07.21.21,0,0,0-.17-.13Zm.23,8.31s.08,0,.08.12,0,.11-.08.11-.09,0-.09-.11S191.84,83.41,191.9,83.41Zm.11-9.36s-.06,0-.06.12,0,.12.06.08a.11.11,0,0,0,.06-.11Q192.07,74.05,192,74.05Zm.26,9.68s0,0,0,.11,0,.11,0,.11-.12,0-.12-.11S192.19,83.73,192.27,83.73Zm0-1.85s-.06,0-.06.05,0,.06.06,0,0,0,0-.06S192.3,81.88,192.27,81.88Zm0-6.35a.18.18,0,0,0,.2.2v-.4A.18.18,0,0,0,192.24,75.53Zm0-2.69.08-.09h-.08Zm.08,15.65s-.06,0-.06,0,0,.08.06.06.06,0,.06-.06S192.39,88.49,192.35,88.49Zm.09-8q0,.09-.09,0s0,0,.07,0S192.47,80.43,192.44,80.46Zm0-.9s-.06,0-.06.11,0,.11.06.11a.11.11,0,1,0,0-.22Zm.25-5.22a.29.29,0,0,0-.25.17h.25Zm-.25,3.57c0,.15.06.23.19.23s.08-.07.17-.21a1.14,1.14,0,0,1,.2-.25l-.11-.05-.09,0-.08,0a.26.26,0,0,0-.2.11A.38.38,0,0,0,192.44,77.91Zm.45-2.89s-.06,0-.06.06,0,.07.06,0,.06,0,.06,0S192.93,75,192.89,75Zm0,6.64s-.06,0-.06.11,0,.11.06.11.08,0,.08-.11S193,81.66,192.89,81.66Zm0-4.29.11.12h.06a.17.17,0,0,0,.17-.16,1.26,1.26,0,0,0,0-.21H193c-.09,0-.13.06-.13.16Zm0,5.48a.9.9,0,0,0,0,.15.93.93,0,0,0,.08.22l.09.08a.45.45,0,0,1,.07.24c0,.07.06.1.21.1a1.72,1.72,0,0,0-.08-.48,1.65,1.65,0,0,0-.2-.4l0,0a.09.09,0,0,0-.06,0s0,0-.08.06Zm.11,1.22S193,84,193,84a.05.05,0,0,0-.06.06s0,.05.07.05S193,84.1,193,84.07Zm.09-7.24h.21a.21.21,0,0,0,.16-.1.35.35,0,0,0-.23-.11h-.14Zm.34-.59a.3.3,0,0,0,0,.14c0,.06.06.09.1.09v-.23Zm.25-2.72c0-.06,0-.09-.14-.09s-.12,0-.08.09a.11.11,0,0,0,.1,0A.18.18,0,0,0,193.68,73.52Zm-.22,2.29h.25a.15.15,0,0,0-.1-.15l-.15-.07Zm0,1.68h.11v-.12Zm.11,1.3s-.06,0-.06,0,0,.07.06.07S193.65,78.79,193.57,78.79Zm0,3.38s-.06,0-.06.07,0,.07.06.07a.05.05,0,0,0,.06-.06S193.61,82.19,193.57,82.17Zm.2,1.67a.63.63,0,0,0,.08.34.38.38,0,0,1,0,.34.51.51,0,0,0,.17-.25,1,1,0,0,0,.09-.26.53.53,0,0,0-.09-.3.42.42,0,0,1-.05-.3A.47.47,0,0,0,193.77,83.84Zm.23-8.59q-.09,0-.09.12c0,.09,0,.13.09.13s.11,0,.11-.13S194.07,75.25,194,75.25Zm.14,13.67c.05,0,.05,0,0,.08s-.09,0-.09,0S194.08,88.9,194.14,88.92Zm.05-14a.27.27,0,0,0,.15.27,1.25,1.25,0,0,0,.31.1v-.06s0,0,0,0,0,0,0,0-.06-.21-.16-.22A1.69,1.69,0,0,0,194.19,74.88Zm.15,13.27s.08,0,.08.11,0,.12-.08.12-.09,0-.09-.12S194.28,88.15,194.34,88.15Zm0-8.79c0-.21.1-.39.15-.55s.2-.25.47-.25a1.34,1.34,0,0,1-.51,1l-.11-.12v-.08Zm.08,3.68q0,.28,0,.6a1,1,0,0,0,.2.54l0,0a.09.09,0,0,0,.06,0s.06,0,.12-.11S195,84,195,84a.38.38,0,0,1,.18,0c.11,0,.16,0,.16-.07v-.06s0,0,0,0a.05.05,0,0,0,0,0,.52.52,0,0,0-.31-.53A1.77,1.77,0,0,0,194.42,83Zm0-6a.19.19,0,0,0,.17-.13.48.48,0,0,0,.06-.21h-.23Zm.11,10.13a.07.07,0,0,0-.08.08c0,.06,0,.09.08.09s.06,0,.06-.09S194.6,87.19,194.56,87.19Zm0-11.26a.19.19,0,0,0,.16.2l.3,0v-.22h-.11a.62.62,0,0,1-.18-.05.35.35,0,0,1-.14-.07.09.09,0,0,0,0,.06Zm.23,8.59s-.06,0-.06,0,0,.06.06,0,.06,0,.06-.06S194.8,84.52,194.76,84.52Zm.12-.79v.11l-.12-.11Zm.11-7.49c-.06,0-.09,0-.09.11s0,.12.09.12.08,0,.08-.12S195.05,76.24,195,76.24Zm.34,8.08s-.06,0-.06.1,0,.1.06.1.08,0,.08-.1S195.39,84.32,195.33,84.32Zm.2-9.81c.05,0,.08,0,.08.11s0,.12-.08.12-.06,0-.06-.12S195.49,74.51,195.53,74.51Zm.22,1.42s0,0,0,0-.05,0-.07,0,0-.06.07-.06S195.77,75.89,195.75,75.93Z" transform="translate(-19.71 -3.39)" fill="#fff"/><path d="M215.69,87.1a.36.36,0,0,1,.09-.28.34.34,0,0,0,.08-.23,1.26,1.26,0,0,0-.05-.33.79.79,0,0,1-.06-.29v-.23a.4.4,0,0,1,.06-.13.59.59,0,0,0,.05-.12.76.76,0,0,0-.11-.16c-.06-.07-.1-.1-.14-.1s0-.21,0-.4,0-.31,0-.37v-.65a2,2,0,0,1,.11-.65,1.08,1.08,0,0,1,.17-.34.57.57,0,0,0,.12-.37c0-.11-.08-.17-.23-.17l-.11.06-.09,0h-.06a.78.78,0,0,0-.41.15.18.18,0,0,0,0,.17,1.13,1.13,0,0,1,0,.15s0,.07-.15.07-.07-.05-.14-.17-.14-.18-.18-.19h-.08c0,.09,0,.18-.07.28a1.45,1.45,0,0,1-.1.25s0,0-.07,0a.15.15,0,0,0-.13,0s-.06,0-.13.11-.11.11-.12.11l-.06,0h-.06a.05.05,0,0,1,0,0,.65.65,0,0,1-.25-.15c-.12-.11-.18-.17-.18-.19l-.06,0c-.09,0-.14.06-.15.19a.19.19,0,0,1-.21.2h-.09a0,0,0,0,1,0,0s-.05,0-.1-.08-.08-.09-.1-.09a.26.26,0,0,0-.14.09c-.06.06-.1.08-.14.08l0,0a1.3,1.3,0,0,1-.34-.15l-.4-.22-.11-.11c.08,0,.11-.06.11-.17s-.09-.21-.28-.34l0,0c-.07,0-.13,0-.17.16a.69.69,0,0,0-.06.21s0,0,.05.06,0,0,0,0v.06a.07.07,0,0,1,0,.06s-.05,0-.05.05h0a.52.52,0,0,1-.24-.05l-.24-.12q0-.14.24-.12c.12,0,.18-.06.18-.19a.74.74,0,0,0-.14-.48.58.58,0,0,1-.14-.4,2,2,0,0,1,0-.21c0-.1.06-.15.16-.13v.37l.07-.08a.16.16,0,0,0,0-.09v-.08a1.58,1.58,0,0,0,0-.19.49.49,0,0,0-.05-.18.9.9,0,0,0-.32.17.48.48,0,0,0-.21.28.66.66,0,0,1-.16-.35.75.75,0,0,1,0-.36s0-.07.07-.11a.22.22,0,0,1,.13-.06l.17.17a.11.11,0,0,0,.08-.1v-.15a.33.33,0,0,1,0-.15s.08-.05.2-.05h.05l.06.08a.17.17,0,0,0,.11.06.12.12,0,0,0,.09,0,.24.24,0,0,0,.17-.09h.06a.68.68,0,0,1,.31.12l.34.17a1.3,1.3,0,0,1,.34.09s.05.06,0,.09a.36.36,0,0,1,0,.09s0,.05.11.07c0-.23.13-.34.37-.34a.42.42,0,0,1,.2,0,.35.35,0,0,0,.17,0h.06l.05,0,.06,0v-.09a.81.81,0,0,1-.06-.2.49.49,0,0,0-.05-.17v-.08s0,0,.05,0,0,0,.06,0a.54.54,0,0,1,.07.26c0,.11.06.17.16.17a.32.32,0,0,0,.27-.13.38.38,0,0,1,.32-.13.25.25,0,0,1,.23.09.23.23,0,0,0,.2.08.55.55,0,0,0,0-.17c0-.05,0-.08.11-.08h.06l.1.1s.08.07.1.07H215a.83.83,0,0,0,.17-.24,1.66,1.66,0,0,0,0-.24.92.92,0,0,0,0-.19s-.08-.09-.17-.13a.09.09,0,0,1,.09-.08h.16l.16,0a.09.09,0,0,0,.07-.1.62.62,0,0,0-.06-.19c0-.1-.08-.2-.13-.3a1.13,1.13,0,0,0-.15-.27c-.06-.08-.11-.11-.14-.11v-.88a.2.2,0,0,1,.14.25.22.22,0,0,0,.11.26c.13,0,.2,0,.2-.15a.54.54,0,0,0,0-.29.74.74,0,0,0-.17-.33h.11a.78.78,0,0,1,.22,0,.41.41,0,0,0,.18,0c.15,0,.26-.12.31-.34a.8.8,0,0,1,.26-.46V75.9a.3.3,0,0,0,.2.08s0,0,.08,0,.07-.05.09,0a.69.69,0,0,1,.21.15.43.43,0,0,1,.13.27.57.57,0,0,0-.29.05s-.05.1-.05.24v.17l.25-.17s0,0,.06,0a.13.13,0,0,1,0,.07s0,.07,0,.14a1.31,1.31,0,0,0,0,.17l.13,0,.15,0c.15,0,.25.21.3.52a9.87,9.87,0,0,1,.1,1,9,9,0,0,0,.1,1c0,.29.14.44.3.44s.15,0,.17-.09h.62a0,0,0,0,1,0,0l0,0,.09-.06h.11l.19.18a1.15,1.15,0,0,1,.15.19.28.28,0,0,1,.09-.41.72.72,0,0,1,.42-.16h.13c.05,0,.07,0,.07,0s.07,0,.09.12a1,1,0,0,1,0,.19c.11,0,.17-.07.18-.14a.19.19,0,0,1,.13-.17.48.48,0,0,0,.42.25.72.72,0,0,0,.44-.14.74.74,0,0,1,.44-.14h.12l.11,0,.06.14s.07,0,.11,0a.09.09,0,0,0,.06,0v-.31a.27.27,0,0,0,.22.08,2.15,2.15,0,0,0,.44,0,2,2,0,0,0,.44,0,.19.19,0,0,0-.05.09.28.28,0,0,1-.06.08l0,.06a.17.17,0,0,0,.18-.13q0-.12.27-.12a.3.3,0,0,1,0,.19.35.35,0,0,0,0,.2.93.93,0,0,1,.25,0,.71.71,0,0,0,.26.05c.09,0,.15,0,.17-.06s.06-.06.14-.06a.09.09,0,0,1,.06,0s0,.07,0,.09v0a0,0,0,0,0,0,0l.12.09s.08.06.08.08l-.08.17-.06.14-.06.15h.48a.35.35,0,0,1-.05.2.31.31,0,0,0-.06.19v0a.43.43,0,0,0,.2.07.23.23,0,0,1,.17.1l-.1,0-.1.08v.08s0,.13,0,.27.06.23.07.27V82s-.06.06-.19.08l-.46,0-.51,0-.37,0h-.05a.32.32,0,0,1-.14-.11.22.22,0,0,0-.15-.08l-.11,0a.33.33,0,0,1-.14,0l-.1.07a.22.22,0,0,1-.1,0H223a.86.86,0,0,1-.47-.11.71.71,0,0,0-.35-.11v.11a.35.35,0,0,0-.4.4h0l-.13-.12c-.07,0-.11-.08-.13-.08s-.07,0-.1.08a.54.54,0,0,1-.07.12.25.25,0,0,1-.27-.1,1.36,1.36,0,0,1-.11-.28,2.11,2.11,0,0,0-.1-.3.2.2,0,0,0-.2-.14h0l-.07,0s0,0,0,0a.43.43,0,0,0,0,.14c0,.08.05.12.07.12h-.11a.43.43,0,0,1-.17-.07.4.4,0,0,0-.17-.08l-.17.43c0-.09-.08-.15-.13-.17a.48.48,0,0,0-.18,0,.85.85,0,0,0-.42.11.39.39,0,0,0-.18.35l-.06-.06v-.06a.54.54,0,0,1,.24-.44,1.25,1.25,0,0,0,.36-.41s0-.06-.09-.11h-.08a.52.52,0,0,1-.13.15l-.13.13H219a.2.2,0,0,0-.11.17,1.93,1.93,0,0,0,0,.24.58.58,0,0,1,0,.23c0,.07-.09.1-.2.1s-.11,0-.11-.12,0-.11-.12-.11a.25.25,0,0,0-.24.19,3.13,3.13,0,0,0-.11.44c0,.16-.05.33-.07.49a.57.57,0,0,1-.12.33.1.1,0,0,1-.08,0,.09.09,0,0,1-.06,0v-.42h-.08l-.09,0h-.05c-.19,0-.31.1-.34.2a1,1,0,0,0-.06.37h.27c.08,0,.1.09,0,.24a.89.89,0,0,0,.24-.13c.07,0,.14-.1.21-.15a1.66,1.66,0,0,1,.23.78q0,.43,0,.84v.45a1.29,1.29,0,0,0-.2.35,3.59,3.59,0,0,0-.14.43l-.11.37q-.06.15-.09.15s-.1,0-.25,0l-.29,0c-.09,0-.15.1-.17.24a.41.41,0,0,1-.14.3l-.34-.32a.54.54,0,0,0-.34-.19c0,.21,0,.35,0,.43s-.11.13-.35.17a1.55,1.55,0,0,1-.06-.39Zm-4.45-6.49s0-.06,0-.06-.07,0-.07.06A.08.08,0,0,0,211.24,80.61Zm-.11.71h.11v-.18h-.11Zm.39.7c.12,0,.17-.09.17-.28h-.17Zm1.17-1.16.08.09h.06l-.06-.17Zm1.16,1.87a.34.34,0,0,0-.14.29l0,0a.39.39,0,0,0,.11-.28Zm1.9-4.22c0,.09,0,.14.1.14h.35c.06,0,.09-.05.09-.14a.21.21,0,0,0-.11-.16.38.38,0,0,0-.18-.07H216l-.2.2Zm.11,7.51a.66.66,0,0,0,.12.27.3.3,0,0,0,.28.13c0-.11,0-.26,0-.45a.53.53,0,0,0-.22-.43.81.81,0,0,0,0,.24C216,85.91,215.94,86,215.86,86Zm.09-1H216L216,85Zm.34-8.08s0,0,0,.08,0,.11,0,.09a.05.05,0,0,0,.06-.06A.15.15,0,0,0,216.29,77Zm.25-.8s.06,0,.06,0,0,0-.06,0Zm.29,1.85h.08v-.06h-.08Zm.17-.68c0,.09,0,.15.08.17l.2-.17Zm.37.53s-.06,0-.06,0a.05.05,0,0,0,.06.06s0,0,0,0A0,0,0,0,0,217.37,77.85Zm.08,5.05a.18.18,0,0,0,.1-.14.71.71,0,0,0,0-.14h-.11Zm.17-3.2s-.06,0-.06.08,0,.09.06.09.06,0,.06-.09S217.66,79.7,217.62,79.7Zm.37,5.84s0,0,0,0,0,0,0,0,0,.06,0,.06S218,85.58,218,85.54Zm2.33-4.34s-.06,0-.06,0,0,.08.06.08A.09.09,0,0,0,220.32,81.2Zm.59-.79s0,0,0,.1,0,.1,0,.1.06,0,.06-.1S221,80.41,220.91,80.41Zm.46,1.59s-.06,0-.06.1,0,.09.06.09,0,0,0-.09S221.4,82,221.37,82Zm.17-1.9s0,.07,0,.17,0,.14.1.14a.32.32,0,0,0,.27-.17.62.62,0,0,0,.1-.31c0-.1-.07-.15-.2-.15l-.13,0a.4.4,0,0,0-.12.07Zm1,1.64s-.06,0-.06.1,0,.1.06.1.09,0,.09-.1S222.56,81.74,222.5,81.74Zm1.7-.79.09-.09h-.09Z" transform="translate(-19.71 -3.39)" fill="#fff"/><path d="M247.74,91.07a.46.46,0,0,0,0-.24.34.34,0,0,0-.11-.24l-.26-.07-.22,0-.12,0a.22.22,0,0,1-.11-.1,1.41,1.41,0,0,1-.26-.17l-.25-.19-.19,0-.32-.08-.31-.09a.3.3,0,0,1-.17-.07,1.59,1.59,0,0,1-.64-.37,4.88,4.88,0,0,0-.58-.45h-.06c-.09,0-.16.07-.2.21l-.08.27q-.26-.06-.3-.21a.53.53,0,0,0-.21-.27l-.06.06-.06,0a.41.41,0,0,0,0,.26c0,.13,0,.22,0,.25a.34.34,0,0,1-.15,0,.24.24,0,0,1-.13-.1.34.34,0,0,1,0-.28c0-.1,0-.16-.12-.2h-.05a.05.05,0,0,1,0,0,.11.11,0,0,1-.08,0v.76a.74.74,0,0,0-.35.23.52.52,0,0,1-.34.2h-.7a.27.27,0,0,1-.05.13.23.23,0,0,1-.07.09H241l-.45,0a1.16,1.16,0,0,1-.37-.09.79.79,0,0,1-.1-.17.69.69,0,0,0-.13-.2,1.87,1.87,0,0,1-.27-.93c0-.34,0-.67,0-1a5.21,5.21,0,0,1,.07-.81,9.14,9.14,0,0,1,.2-1c.09-.33.18-.65.28-1a5.07,5.07,0,0,1,.33-.78.79.79,0,0,1,.43-.37.85.85,0,0,0,.42-.37s.09-.12.16-.29a2.56,2.56,0,0,1,.13-.31s0,0,.11-.14l.05,0s.06,0,.06,0a.4.4,0,0,0,.14-.13.36.36,0,0,0,.09-.12.1.1,0,0,0,0-.12.23.23,0,0,1,0-.11l.1-.1a.48.48,0,0,1,.12-.1l.05.16s.06,0,.15,0,.12,0,.19-.14a2.43,2.43,0,0,0,.18-.32,1.73,1.73,0,0,0,.14-.32.88.88,0,0,0,.06-.21l.3,0a2,2,0,0,0,.35-.06.6.6,0,0,0,.3-.14.38.38,0,0,0,.16-.27h.59a.41.41,0,0,1,.05-.11.48.48,0,0,1,.09-.14h.25a.55.55,0,0,0,.24,0l.62-.48.43-.33a1.28,1.28,0,0,1,.22-.16.56.56,0,0,0,0-.15c0-.07,0-.11,0-.13s.05-.06.14-.11l.2-.12a.27.27,0,0,0,.06-.11.27.27,0,0,1,.06-.11.64.64,0,0,1,.12-.15l.13-.11c0-.07.1-.21.19-.4l.15-.34s0-.07,0-.17a2.61,2.61,0,0,0,0-.31,3.06,3.06,0,0,1,.05-.32c0-.11,0-.17,0-.19a.24.24,0,0,1,.06-.11.31.31,0,0,0,.06-.12,1.12,1.12,0,0,0,.11-.22.85.85,0,0,0,.06-.17.09.09,0,0,1-.06,0,.15.15,0,0,0-.11-.06,2.79,2.79,0,0,0-.48-.15l-.49-.13v-.31l-.24,0a1,1,0,0,1-.24.06,1.52,1.52,0,0,1-.18-.23l-.16-.2-.52-.18-.5-.16h-.34a4.87,4.87,0,0,0-1.32.2,1.83,1.83,0,0,0-1.06.77v.14a.5.5,0,0,0,.11.37l.51.25a4,4,0,0,1,.74.56c.22.21.43.44.62.66a.58.58,0,0,0,0,.1s0,.08,0,.1a1.26,1.26,0,0,1-.14.37c-.1.19-.16.28-.2.28s-.16-.06-.2-.18a1.57,1.57,0,0,1-.08-.33,1.31,1.31,0,0,1-.71.17c0-.13,0-.19.17-.19a.15.15,0,0,0,.17-.17v-.15a2,2,0,0,1-.47.2,1.85,1.85,0,0,1-.5.06h-.28c0-.17-.06-.26-.17-.27a.53.53,0,0,1-.31-.13.9.9,0,0,1-.41-.52,1.44,1.44,0,0,0-.33-.56.88.88,0,0,0-.27-.12l-.42-.13-.39-.11c-.11,0-.17-.08-.17-.12V74.11a.23.23,0,0,1-.13-.14,1,1,0,0,1,0-.17.54.54,0,0,0,.47-.21l.3-.44.25,0,.39,0,.38-.06.26,0,.15-.1a.36.36,0,0,1,.18-.1,1,1,0,0,1,.43-.14.55.55,0,0,0,.34-.23h1.05c0-.15,0-.24,0-.27s0-.11-.13-.24h.15a6,6,0,0,1,1,.41,1.45,1.45,0,0,1,.7.84h.08c.1,0,.15-.07.17-.22a.22.22,0,0,1,.23-.21l.08,0,.09,0,.23,0a1.19,1.19,0,0,1,.25.07h.5a.64.64,0,0,1,.28.06.25.25,0,0,1,.16.2,1.58,1.58,0,0,1,.07.34,2.71,2.71,0,0,1,0,.37,2.64,2.64,0,0,1,.67.39,1.15,1.15,0,0,1,.47.6,1.76,1.76,0,0,1,0,.23,1.49,1.49,0,0,0,0,.22.74.74,0,0,0,.28,0,.55.55,0,0,1,.26-.06h.06l.05,0,.22.07.15,0s0,.09,0,.2,0,.18,0,.2A1.37,1.37,0,0,0,250,76a1,1,0,0,1,.18.27,1.2,1.2,0,0,1,.1.49c0,.22,0,.41,0,.56a5.31,5.31,0,0,1,0,.68,4.08,4.08,0,0,0-.06.71v.61a1.85,1.85,0,0,0,.11.58,1.42,1.42,0,0,1-.29.21l-.3.19s-.11,0-.26-.15a.86.86,0,0,0-.28-.17.9.9,0,0,0,0,.15c0,.07,0,.15.05.24l.06.25a1.16,1.16,0,0,1,0,.16.27.27,0,0,0,.06.14.41.41,0,0,1,.05.11v.23a.82.82,0,0,1-.07.37.28.28,0,0,1-.27.14.24.24,0,0,1-.27-.18c0-.13-.09-.19-.18-.19h0a.87.87,0,0,1-.11.44l-.24.36c-.09.11-.17.23-.26.35a1,1,0,0,0-.16.44.55.55,0,0,0,0-.2.76.76,0,0,0-.09-.17l-.05,0a.39.39,0,0,0-.23.06.58.58,0,0,1-.31.06v.65s0,0-.09.07a.3.3,0,0,1-.14,0,.56.56,0,0,1-.26,0l-.25,0-.2.17a.16.16,0,0,1-.11,0,.17.17,0,0,1-.06-.12.26.26,0,0,0,.08-.11.31.31,0,0,1,.09-.11V83.1c-.08,0-.13,0-.17-.14l-.06,0s0,0,0,0a.46.46,0,0,1-.12.13.58.58,0,0,0-.11.13v.11a.42.42,0,0,0,.06.14.81.81,0,0,1,.05.14,3.94,3.94,0,0,1-.48.34l-.35.26a.89.89,0,0,1-.19.11l.14.12-.28.53a1.57,1.57,0,0,0-.28.33l-.26.35c0,.08.13.09.29,0a.86.86,0,0,1,.31-.1h.08a.19.19,0,0,0,.09-.13.44.44,0,0,1,.05-.13s0,0,.09,0l.11,0,.06-.2h.09a.22.22,0,0,1,.14,0s0,0,0,0,0,0,0,0a.38.38,0,0,0,.38.23,1.07,1.07,0,0,1,.41.06.44.44,0,0,0,.09.11l.11.11a.72.72,0,0,0,.55.22l.58,0a.39.39,0,0,0,0,.14v.12a.09.09,0,0,0,0,.06.85.85,0,0,1-.28.12.89.89,0,0,0-.29.13v1.33q0,.15.12.15s.06-.09.08-.27.05-.38.09-.59a2.75,2.75,0,0,1,.15-.55q.1-.24.3-.21l.34.48a1.2,1.2,0,0,0,0,.23.16.16,0,0,0,.17.14.41.41,0,0,0,.23-.06.3.3,0,0,1,.19,0c.14,0,.23,0,.27.1a.89.89,0,0,1,.13.24h.6a.45.45,0,0,1-.2-.09.36.36,0,0,1-.17-.14l0-.06,0,0a.35.35,0,0,0,.06-.09s0-.06.05-.06a3,3,0,0,0,.4.15,2.17,2.17,0,0,1,.34.11,1.22,1.22,0,0,0,.38,0H251s.05,0,.11.06l.14,0a.92.92,0,0,0,0,.22,1.08,1.08,0,0,0,.07.18s.1,0,.17,0a.54.54,0,0,1,.15-.08s0,0,0,0,0,0,0,0a.32.32,0,0,0-.05-.16.4.4,0,0,1-.06-.13l0,0v-.06h.14l.22.07.15,0,0,.06a.56.56,0,0,1-.18.48,1.77,1.77,0,0,0-.33.34v.14a.45.45,0,0,1-.17.3.42.42,0,0,1-.24.07h-.24l-.2,0L251,89a.05.05,0,0,1,0,.07.14.14,0,0,1-.1,0c-.13,0-.22,0-.25-.12a.61.61,0,0,1-.07-.24,2,2,0,0,0,0-.24.15.15,0,0,0-.17-.11s-.07.06,0,.2a1,1,0,0,1,0,.38.32.32,0,0,1-.22.24c-.13,0-.35,0-.67-.23v-.76a.09.09,0,0,1-.06,0l-.05-.06-.08.14a.79.79,0,0,0,0,.12,1.89,1.89,0,0,0,0,.51c0,.26,0,.44,0,.54l.06,0s0-.08.07-.14a.43.43,0,0,0,0-.14,1.6,1.6,0,0,1,.25.27.48.48,0,0,1,.12.3.22.22,0,0,1-.06.18s-.06.1-.06.21,0,.1,0,.06l0-.18a.85.85,0,0,1,.09-.24.17.17,0,0,1,.17-.12l.34-.2.22-.14c.15-.07.23-.09.23,0l-.23,1.44a1.69,1.69,0,0,0-1,.24,1.48,1.48,0,0,1-.86.24h-.47A1.61,1.61,0,0,1,247.74,91.07Zm-7.12-5.93h.06a2.36,2.36,0,0,1,0-.24.28.28,0,0,1,.17-.24l-.06,0,0-.06-.09,0-.06,0Zm.54-1c-.07,0-.11,0-.11.13s0,.13.11.13.09,0,.09-.13S241.22,84.18,241.16,84.18Zm.34.48c-.07,0-.11,0-.11.13s0,.13.11.13.12,0,.12-.13S241.58,84.66,241.5,84.66Zm.15-.59h.11l-.11-.12Zm.11-.63.37.12a1.36,1.36,0,0,0,.36,0c0-.13,0-.21-.11-.24a.75.75,0,0,0-.28,0h-.19A.14.14,0,0,0,241.76,83.44Zm.11,5c-.06,0-.08,0-.08.13s0,.13.08.13.09,0,.09-.13S241.93,88.49,241.87,88.49Zm.23-12.62c-.06,0-.09,0-.09.1s0,.1.09.1.11,0,.11-.1S242.17,75.87,242.1,75.87Zm.71,9.84a1,1,0,0,0,.1.44.32.32,0,0,0,.32.21h.06l.06,0,.07-.09.18-.26,0-.08a.09.09,0,0,0,0-.06l-.38-.1A2.59,2.59,0,0,0,242.81,85.71Zm.34-3.12a.21.21,0,0,0,0,.09l0,0v.22c0,.11,0,.24,0,.37s0,.25,0,.35v.22q.09,0,.09-.06a.26.26,0,0,0,.08-.17,1,1,0,0,1,.06-.2l.11,0,.11-.06V83.1a1.24,1.24,0,0,1,.08-.27c0-.14.07-.22.07-.24a.15.15,0,0,0-.1-.15.79.79,0,0,0-.22-.06.58.58,0,0,1-.21-.07.21.21,0,0,1-.1-.2s-.07.08-.1.17a.68.68,0,0,0,0,.2Zm.2,6s0,0-.06,0-.1,0-.06,0,.05.09.07.09S243.35,88.66,243.35,88.6Zm.25-7a.1.1,0,0,0-.11.11v.12l.11-.12V81.6Zm0-8.94a.21.21,0,0,0,.13.22.8.8,0,0,0,.27,0v-.43a.92.92,0,0,0-.2.05.6.6,0,0,0-.17.07Zm0,15.83.11.2a.53.53,0,0,0,.15.17,1.11,1.11,0,0,0,.07-.13.34.34,0,0,0,0-.13v-.11a.3.3,0,0,0,0-.14c0-.06-.06-.09-.07-.09h0l-.06,0-.06,0c-.07,0-.11,0-.11.12l0,.05Zm.11-2.55a.55.55,0,0,0,.13-.23,1.27,1.27,0,0,0,0-.22v-.18c0-.07-.05-.13-.15-.17l-.11.17Zm.15-2.13c-.08,0-.12,0-.12.13s0,.13.12.13.08,0,.08-.13S243.91,83.81,243.86,83.81Zm0,1.11a.26.26,0,0,0,.14-.26h-.14Zm1.47,1a.23.23,0,0,0-.23.14.91.91,0,0,0,0,.26c.13,0,.21,0,.24-.13A.77.77,0,0,0,245.33,85.88Zm.17,3.46a.24.24,0,0,0,.26.27l.48,0c0-.16-.09-.24-.27-.26Zm.31-3.69c0,.17-.06.31-.08.42l-.06.32c0,.12,0,.2,0,.26v.22a.6.6,0,0,1,.11.13,1.42,1.42,0,0,0,.18.22c.07,0,.12,0,.16,0a1.56,1.56,0,0,0,.05-.57s0-.05.06-.09l.06,0s0-.08,0-.16a1.36,1.36,0,0,0,0-.27,2.51,2.51,0,0,1,0-.27c0-.08,0-.14,0-.16Zm.34-4.28a.26.26,0,0,0,.15.23v-.23Zm.26,6.89.14-.14-.14-.11Zm1-.22c0,.09,0,.14.07.15l.19,0a.45.45,0,0,1,.21.12.24.24,0,1,0,.21.19.31.31,0,0,1,.12-.17s0,0,.05,0a.16.16,0,0,0,.09,0v.25c0,.06.07.09.23.09,0-.13,0-.32,0-.56s-.11-.4-.26-.46l-.11,0-.14,0v-.45l-.6.65Zm.51-6.55.12.34.08,0,.09,0a.23.23,0,0,1,0-.09.81.81,0,0,0,.05-.14l.09-.46c0-.07-.06-.06-.19,0a.53.53,0,0,1-.29.15Zm.51,5.87s0,0,0,.08,0,.09,0,.09S248.47,87.36,248.39,87.36Zm.15.17c-.08,0-.12,0-.12.11s0,.11.12.11.08,0,.08-.11S248.59,87.53,248.54,87.53Zm.11.11c-.06,0-.09,0-.09.13s0,.13.09.13.06-.05.06-.13S248.69,87.64,248.65,87.64Zm.08.37.15-.11h-.15Zm.35-8.91s-.09.05-.13.13a1.59,1.59,0,0,0-.12.27,2.56,2.56,0,0,0-.05.27c0,.08,0,.13,0,.13s.08-.05.13-.13.08-.18.11-.27a1.31,1.31,0,0,0,.06-.27C249.13,79.15,249.11,79.1,249.08,79.1Zm.53,9.39.12-.11h-.12Z" transform="translate(-19.71 -3.39)" fill="#fff"/><path d="M267.06,89.91a.14.14,0,0,0,0-.06.11.11,0,0,1,0,0v-.06a1,1,0,0,0,0-.18.48.48,0,0,0-.1-.19.58.58,0,0,0-.1-.2.46.46,0,0,1-.1-.17v-.08l-.07-.23a1.26,1.26,0,0,0-.07-.17,1,1,0,0,0-.16-.21,2.22,2.22,0,0,1-.18-.24.27.27,0,0,1,0-.12v-.37a.26.26,0,0,1,0-.11.43.43,0,0,1,.08-.17,1.58,1.58,0,0,1,.14-.2s.05,0,.09-.06l0,0a.56.56,0,0,1,.29-.1l.3,0,.19-.05.18-.06h.34a.55.55,0,0,0,.19-.06.62.62,0,0,1,.18,0l.11-.12.12-.11a1.28,1.28,0,0,1,.3-.07,1.47,1.47,0,0,0,.29-.07l.17-.06a.57.57,0,0,1,.17,0h.71a.84.84,0,0,1,.12.18c.05.1.1.17.14.18h.25a.38.38,0,0,1,.09-.11.92.92,0,0,0,.11-.14.37.37,0,0,0,.06-.16l.05-.18.23-.12a1,1,0,0,0,.19-.12.33.33,0,0,1,.18-.1l.23.11.07.07s.05,0,.07,0a.24.24,0,0,0,.11,0l.12-.07.18-.06.18-.05a.47.47,0,0,1,.23-.14l.26-.12.21,0a.51.51,0,0,0,.24,0l.06,0a.21.21,0,0,0,0-.09h.12s0,0,.11.09l.11,0h.26s0,0,.1.07a.43.43,0,0,0,.15,0h1.14a1.14,1.14,0,0,0,.31-.1,2,2,0,0,0,.31-.16l.06-.08.06-.12s.05,0,.11.06.09.06.11.06h.12l.12-.12c.07,0,.1-.09.1-.11a0,0,0,0,0,0,0,0,0,0,0,1,0,0,2.23,2.23,0,0,0,0,.26,1,1,0,0,0,.06.25.26.26,0,0,0,.08.16c.06.07.09.1.11.1h1.45c0-.08.1-.2.18-.38a1.68,1.68,0,0,1,.19-.33.23.23,0,0,1,.08-.14h.15a1.32,1.32,0,0,0,.38.1l.33,0s.07,0,.17.07l.17,0h.62a.27.27,0,0,0,0,.12.56.56,0,0,0,.05.08,2,2,0,0,0,.06.31,2.31,2.31,0,0,1,.06.31l.18.17c.11.1.16.16.16.18a2,2,0,0,1,.17.19,1.14,1.14,0,0,1,.11.17l-.14.23s.05.08.14.11l.2.06v.77c.08,0,.11.08.11.14l.08.11a.31.31,0,0,0,.07.12l.05,0,.06,0a2.64,2.64,0,0,0,.11-.25l.12-.24.12-.14c.07,0,.11-.08.13-.08H283a1.26,1.26,0,0,1-.06.24c0,.12-.06.2-.08.24l-.12.24a.85.85,0,0,1-.11.21.58.58,0,0,1-.06.2,1.47,1.47,0,0,0-.05.17.24.24,0,0,1-.16.09.73.73,0,0,1-.18,0s-.08-.06-.13-.12a.39.39,0,0,0-.13-.13.7.7,0,0,0-.21,0l-.21,0a.49.49,0,0,0-.06-.17.05.05,0,0,0,0-.05l-.06-.06h-.14s-.05,0-.11.06l-.12.05h-.08a.63.63,0,0,1-.21-.05.55.55,0,0,0-.19-.06.1.1,0,0,1-.11-.11.34.34,0,0,0,.14,0c.06,0,.1,0,.11-.07l.08-.13a.28.28,0,0,0,0-.12s0,0,0-.06l-.08-.06h-.25l-.16.22-.18.27-.06.11,0,.11-.08.07a.27.27,0,0,0,0,.07,1.27,1.27,0,0,0-.11-.15c-.06-.07-.11-.1-.14-.1h-.12a1.47,1.47,0,0,1-.05.17.67.67,0,0,0-.06.17,2.23,2.23,0,0,0-.18.2.88.88,0,0,0-.16.2.52.52,0,0,0-.13-.15l-.13-.11h-.11l-.06,0-.1,0h-.07l-.11.11-.14.15-.06.11a.09.09,0,0,0,0,.06,0,0,0,0,1,0,0h-.11l-.17.08-.17.06a.57.57,0,0,1-.13-.07.31.31,0,0,0-.12-.07h-.23a.9.9,0,0,1-.26,0,.36.36,0,0,1-.05-.09l-.06-.11c0-.1,0-.15-.11-.15h-.12s-.05,0-.11.06l-.11.09a.63.63,0,0,0-.19,0,.54.54,0,0,1-.18,0l-.29,0-.48.09-.48.08-.26.05a1,1,0,0,0-.29.11.91.91,0,0,1-.3.11.56.56,0,0,1-.26,0l-.22,0-.26.26h-.34s-.08,0-.13.08a.76.76,0,0,1-.1.12h-.26l-.27,0h-.32a.64.64,0,0,1-.2,0l-.25-.06-.26-.06h-.11a.83.83,0,0,1-.17.13.46.46,0,0,1-.17.1h-.11l-.13,0-.13-.07-.15-.06a.55.55,0,0,0-.19-.06h-.11l-.06.06-.06.06-.07.12a.46.46,0,0,1-.07.13.09.09,0,0,0,0,0s0,0,0,0l-.06,0a1.23,1.23,0,0,0-.29,0l-.25,0h-.28l-.12-.06h0l0,0h0s-.08,0-.14.09a.64.64,0,0,0-.12.14H266.8l.12-.25a2.17,2.17,0,0,1,.11-.26V90a.06.06,0,0,1,0,0A.05.05,0,0,0,267.06,89.91Zm.45-7.06a.71.71,0,0,0,0-.22c0-.1,0-.21,0-.34l0-.35c0-.11,0-.2,0-.26a.31.31,0,0,0,0-.12c0-.07-.05-.14-.08-.22l-.09-.22a.54.54,0,0,1,0-.15.65.65,0,0,1,0-.18.37.37,0,0,1,.1-.18l.11-.06.12-.06a.56.56,0,0,0,.17-.1.51.51,0,0,1,.2-.1l.05,0,.06,0,.23.2s.11.08.27.13a1.35,1.35,0,0,1,.32.13l.06,0,.06,0a.84.84,0,0,1,.11-.2c.06-.09.09-.15.11-.17s.11,0,.21,0a.63.63,0,0,0,.22.07.45.45,0,0,0,0-.08.61.61,0,0,1,0-.14.64.64,0,0,1,0-.2c0-.1.08-.14.11-.14l.12,0h0l0,0h0s.06,0,.12.11.1.11.14.11a.05.05,0,0,0,0,0h.2l.09,0a.24.24,0,0,0,.13,0,.2.2,0,0,1,.09,0,.84.84,0,0,0,.07-.16.6.6,0,0,1,.08-.13c.05,0,.08,0,.08-.11h.14a.3.3,0,0,1,.07.13l.07.13a.26.26,0,0,0,.09.14.6.6,0,0,1,.11-.14.64.64,0,0,0,.12-.15s0,0,.07-.1a.54.54,0,0,1,.07-.12.31.31,0,0,0,0,.12c0,.07.05.1.07.1l0,0h.06a0,0,0,0,0,0,0,.1.1,0,0,0,.11-.11v-.11c0-.06,0-.09-.11-.09a.83.83,0,0,1,.22-.14l.23-.11h.14a.33.33,0,0,1,.06.12.31.31,0,0,0,.06.13l.07,0a.1.1,0,0,0,.07,0H273l.44-.12a1.89,1.89,0,0,0,.38-.11.4.4,0,0,1,.13-.06.34.34,0,0,0,.13,0h.25l.23-.24c.11-.13.19-.21.23-.25l.1.08a.33.33,0,0,0,.13,0l.11-.06a.27.27,0,0,1,.14-.06h.11l.12.06.11.06h.11l.17-.07.3-.15a2.09,2.09,0,0,0,.3-.14.66.66,0,0,0,.17-.1l.31-.07.4-.07h.23s0,0,.14.09l.11,0a1.7,1.7,0,0,0,.41,0,1.58,1.58,0,0,0,.41,0s0,0,.05.06l.07.06H279a.31.31,0,0,0,.06-.13.43.43,0,0,0,0-.13.21.21,0,0,0,.09,0l.06,0,.05,0,.06,0a.09.09,0,0,1,.06,0l.05,0a.4.4,0,0,0,.06.13.4.4,0,0,1,.06.13h.11l.07-.09.07-.08h.46a.52.52,0,0,1-.06.14.38.38,0,0,0-.06.17v.08s0,.07.1.13l.13.13.14,0c.08,0,.11,0,.11.08a1,1,0,0,0,.05.17,1.38,1.38,0,0,0,.07.2l0,.06a.12.12,0,0,0,.09,0,.26.26,0,0,0,0,.11l.05.11.23-.11a.38.38,0,0,0,0,.13,1.47,1.47,0,0,0,.1.13l.1.07.13.07s-.08.08-.13.2-.08.19-.1.22v.06a.09.09,0,0,0,0,.06h.06l.14,0a.34.34,0,0,0,.14-.09l.2.48a.56.56,0,0,0,.13-.07.38.38,0,0,1,.13,0h.11v.26l-.24,0a.87.87,0,0,0-.24.06l-.37.37a.66.66,0,0,1,0,.13.31.31,0,0,1-.06.13l-.25,0c-.14,0-.2,0-.2,0a.59.59,0,0,0-.21,0l-.19.07s0,0-.07.1a.34.34,0,0,0,0,.13l-.11.11h-.12a.27.27,0,0,0-.11-.06c-.06,0-.1,0-.11,0a1.32,1.32,0,0,0-.36-.07,1.35,1.35,0,0,1-.35-.08.77.77,0,0,1-.19-.15l-.18-.19-.07.07a.15.15,0,0,0-.05.08h-.22l-.19-.09a.46.46,0,0,0-.18-.06l-.34.34a0,0,0,0,1,0,0h-.06l-.05,0a.25.25,0,0,1-.12,0l-.11-.06h-.26l-.08.08-.09,0h-.21l-.07,0s-.05,0-.1-.09-.09-.1-.13-.1l-.08,0h-.12l-.14,0a.33.33,0,0,0-.18.1.43.43,0,0,1-.19.09h-.82l-.27,0-.44,0a3.13,3.13,0,0,0-.44,0l-.27,0h-.36a1.19,1.19,0,0,1-.23,0l-.23.06a.24.24,0,0,0-.11.06l-.12,0s-.08,0-.18,0l-.18,0a.4.4,0,0,1-.17.07l-.2.05a1,1,0,0,1-.34,0h-.34a.92.92,0,0,0-.2.14.76.76,0,0,1-.17.11l-.19,0-.34,0-.37,0-.27,0h-.73a.26.26,0,0,0-.12.07.3.3,0,0,1-.11.07h-.24l-.3,0h-.25a.33.33,0,0,1-.15,0Zm1.05-1.73h.14V81h-.14Zm.48.08h.12v-.08H269Zm1.31-.71s0,0-.05.06a1.21,1.21,0,0,0,0,.2.92.92,0,0,0,0,.18s0,.06.05,0a.35.35,0,0,0,0-.22A.6.6,0,0,0,270.35,80.49Zm1.16,6.16.11-.12h-.11Zm1.31.37.05,0s.07.06.09.06l0,0,.05,0,.06,0,.06,0,0-.06,0-.06v0s0,0-.06-.05-.06,0-.06-.06H273a.64.64,0,0,0-.1.13A.24.24,0,0,0,272.82,87Zm.14-.85c-.06,0-.09,0-.09,0s0,.08.09.06a0,0,0,0,0,.05,0A.08.08,0,0,0,273,86.17Zm.68.36q-.09,0-.09.12c0,.07,0,.11.09.11a.1.1,0,0,0,.11-.11C273.75,86.57,273.71,86.53,273.64,86.53Zm.48-.93a.1.1,0,0,0-.11.11c0,.08,0,.11.11.11s.08,0,.08-.11S274.18,85.6,274.12,85.6Zm4.59-.85-.24.25c-.12.13-.2.2-.24.2s0,0-.08.06a.09.09,0,0,1-.06,0V85.2a.16.16,0,0,1,0-.08l.18-.19.19-.18h.22Zm-.22.59v.12l-.12-.12Zm.11-5.78s-.06,0-.06,0,0,.08.06.06a.05.05,0,0,0,.06-.06S278.64,79.56,278.6,79.56Zm.45,6.72s-.05,0-.05.13,0,.12.05.12a.11.11,0,0,0,.12-.12C279.17,86.32,279.13,86.28,279.05,86.28Zm.6-7.55s0,0,0,0-.07,0-.07,0a.07.07,0,0,0,.07.06S279.65,78.77,279.65,78.73Zm1.08-.08s0,0,0,0,0,0,0,0-.06,0-.06-.07S280.69,78.61,280.73,78.65Zm.34,9.42s0-.06,0-.06-.08,0-.08.06a.1.1,0,0,0,.08.05A0,0,0,0,0,281.07,88.07Zm.34-2.47v.11h-.09V85.6Zm.37,2.69v-.11h-.09Z" transform="translate(-19.71 -3.39)" fill="#fff"/><path d="M300.21,86.22l-.1,0-.1,0c-.05,0-.09,0-.12-.13a1.27,1.27,0,0,1-.06-.28c0-.11,0-.21,0-.3v-.17a.31.31,0,0,0-.22.14.23.23,0,0,1-.21.11l0-.79a.05.05,0,0,1-.05,0,.09.09,0,0,1-.06,0,.79.79,0,0,1,0,.12.31.31,0,0,0,0,.11h-.05S299,85,299,85a.42.42,0,0,1-.11-.21l-.09-.24a.51.51,0,0,1,0-.14l-.13-.26-.21-.42-.22-.43a1,1,0,0,1-.1-.25,4,4,0,0,0-.05-.43l-.06-.35c0-.13,0-.22-.05-.3V81.8a3.78,3.78,0,0,1,.08-.6,2.41,2.41,0,0,0,.08-.44,1.1,1.1,0,0,1,.06-.27s.05,0,.14.05l.17.07h.12l.05,0,0,0a.22.22,0,0,1,0,.1.22.22,0,0,0,0,.1.2.2,0,0,0,0,.07.3.3,0,0,1,0,.1c0,.13,0,.2.07.21l.21,0a.55.55,0,0,0-.06-.26.58.58,0,0,1-.07-.21.24.24,0,0,1,0-.17.78.78,0,0,1,.26-.16c.13,0,.2,0,.2.09,0-.17.08-.27.2-.29l.37,0a1.1,1.1,0,0,0-.15-.57.6.6,0,0,0-.48-.31.45.45,0,0,0-.1.37c0,.17,0,.29,0,.36a.93.93,0,0,0-.24,0,1,1,0,0,1-.27,0,.17.17,0,0,1-.16-.07s0-.15.1-.3a.33.33,0,0,0,.23-.06.29.29,0,0,0,.07-.12.81.81,0,0,0,0-.16.45.45,0,0,1,.06-.2,1,1,0,0,1,.21-.21c.12-.1.26-.21.43-.33l.44-.32.25-.22a.24.24,0,0,1,.09-.08l.11-.09,0,0c.11,0,.21.07.29.28a1.43,1.43,0,0,0,.22.4s0,0,.07,0,.05-.06.07-.06a1.13,1.13,0,0,0-.11-.34.86.86,0,0,1-.12-.34c.14,0,.21,0,.23-.14a1.15,1.15,0,0,1,.11-.29.86.86,0,0,1,.06-.25.48.48,0,0,1,.08-.17h.06a1.48,1.48,0,0,0,0,.24.19.19,0,0,0,.19.16h0a3.37,3.37,0,0,1,.31-.76,1.82,1.82,0,0,1,.54-.6h0a.26.26,0,0,1,.18.11.91.91,0,0,1,.18.27,3.16,3.16,0,0,0,.18.27.22.22,0,0,0,.17.11s.05,0,.09-.1a1.25,1.25,0,0,0,.15-.24c0-.09.09-.18.12-.26a.4.4,0,0,0,.06-.16v-.06a.31.31,0,0,0,.11-.09l.09-.08v-.09a.2.2,0,0,0-.13-.2.27.27,0,0,1-.15-.25c.13,0,.2,0,.21.08s.09.09.24.09a.45.45,0,0,1,.06-.24,2.25,2.25,0,0,1,.12-.21,2,2,0,0,0,.13-.25.82.82,0,0,0,.06-.35c0-.13,0-.26-.06-.37s-.11-.19-.28-.23A.24.24,0,0,1,304,74a.5.5,0,0,1-.13.1s0,0-.07,0-.08-.07-.1-.07h-.11a.16.16,0,0,0-.1.07c0,.05-.08.07-.1.07s-.12,0-.12-.11l.12-.09a.29.29,0,0,1,.08-.08.13.13,0,0,0,0-.06.14.14,0,0,1,0-.06h0l-.06,0s0,.05-.07.08a.29.29,0,0,0-.1.07c-.1-.23-.22-.34-.38-.33a2,2,0,0,1-.53,0,1.57,1.57,0,0,1,0,.27.33.33,0,0,1,0,.17.14.14,0,0,1-.16,0,.23.23,0,0,1-.14-.07c-.06-.05-.09-.09-.09-.13l-.48.54h-.11a.11.11,0,0,1-.09-.09l-.05,0a.18.18,0,0,0-.12.12.68.68,0,0,0,0,.19,1.57,1.57,0,0,0-.62.13,2.37,2.37,0,0,1-.65.15c0,.13-.08.21-.17.21l-.28,0h-.18a.22.22,0,0,1-.14,0,.77.77,0,0,0-.14-.31l-.23-.34a2,2,0,0,0-.22-.3.57.57,0,0,1-.14-.21s.05,0,.05-.13v-.16a3,3,0,0,0-.21-.3l-.33-.39c-.11-.14-.21-.29-.31-.43a.74.74,0,0,1-.14-.38c0-.15,0-.23.1-.24l.32,0a.78.78,0,0,1,.39.08.68.68,0,0,0,.35.09V71.4a1.2,1.2,0,0,1,0-.28c0-.09.05-.13.09-.13a1.15,1.15,0,0,0,.28-.11c.06,0,.09-.07.1-.1a.28.28,0,0,0,0-.09s0,0,.09,0a.86.86,0,0,1,.34-.06,1.14,1.14,0,0,0,.37,0,1,1,0,0,0,.2-.22.2.2,0,0,1,.19-.09h.06l-.28.56a4.42,4.42,0,0,0,.61.13,2.47,2.47,0,0,0,.61,0c.07,0,.12,0,.12-.05a.59.59,0,0,0,0-.14.91.91,0,0,1,0-.17.14.14,0,0,1,.1-.12,1.19,1.19,0,0,0,0,.14.26.26,0,0,0,.1.15h.09a1.42,1.42,0,0,1,.18-.22.94.94,0,0,0,.19-.21l.13-.07a.2.2,0,0,1,.09,0s.11,0,.2,0a1,1,0,0,1,.2.15v.11a.66.66,0,0,1,0,.25.75.75,0,0,0,0,.26v.06l.05.07a.07.07,0,0,0,.06,0,.54.54,0,0,0,.1-.3l0-.34a.82.82,0,0,1,.07-.28.34.34,0,0,1,.2-.19l0,.6.05.06c0,.05.08.06.12,0a.51.51,0,0,0,.08-.21s0-.07,0-.08a0,0,0,0,1,0,0,.32.32,0,0,1,.15,0,1.77,1.77,0,0,1,.39.06c.16,0,.25.12.26.26v.05a.31.31,0,0,1,0,.12.24.24,0,0,0,0,.11v.06s0,.09.11.1h.2c.08,0,.12,0,.14,0s.07-.05.15-.05a.5.5,0,0,1,.19.13l.32.3a2.86,2.86,0,0,1,.29.33.54.54,0,0,1,.13.18,1.83,1.83,0,0,1,.13.26,3.48,3.48,0,0,1,.13.34c0,.11,0,.18.07.2l.1,0h.12c.05,0,.11,0,.19.12a8.27,8.27,0,0,1,.72.81,1.12,1.12,0,0,1,.24,1,.38.38,0,0,1,.26-.08,1.87,1.87,0,0,1,0,.27.54.54,0,0,1,0,.15.56.56,0,0,0,0,.12.59.59,0,0,0,0,.17.14.14,0,0,0,.08.14s.07,0,.07.08a.21.21,0,0,1-.16.22.43.43,0,0,0-.24.15l0,.06a.09.09,0,0,0,0,.06s0,0,.07.08a.29.29,0,0,1,0,.11c0,.12-.1.28-.19.5s-.22.33-.37.33a.27.27,0,0,1-.22-.09,1.74,1.74,0,0,1-.11-.18,1.24,1.24,0,0,0-.1-.2.18.18,0,0,0-.17-.1,1.25,1.25,0,0,0,.09.4c0,.07.08.19.14.36l-.06,0a.42.42,0,0,1-.35-.2,1.48,1.48,0,0,0-.3-.28.1.1,0,0,0-.09,0l-.05.07a.24.24,0,0,0,.08.13l.19.21.18.22a.36.36,0,0,1,.09.12s-.06.07-.16.13-.15.12-.13.16l-.37-.06a1.66,1.66,0,0,0,.1.43c.07.19,0,.31-.07.37a.63.63,0,0,0-.07-.22l-.16-.31a1.27,1.27,0,0,0-.18-.27c-.07-.07-.11-.11-.13-.11a3.77,3.77,0,0,1,.06.59,1,1,0,0,1-.1.44.56.56,0,0,1-.35.3.1.1,0,0,0,0-.08,2.08,2.08,0,0,0-.06-.42.7.7,0,0,1,0-.41v-.08a.07.07,0,0,0,0-.06l-.07,0a.51.51,0,0,0-.15.31c0,.13,0,.27,0,.41a1.82,1.82,0,0,1-.09.37.21.21,0,0,1-.22.15h0a1.39,1.39,0,0,1-.26-.35.34.34,0,0,0-.31-.21.87.87,0,0,0,.13.41,1,1,0,0,1,.13.47s-.06.09-.16.11l-.36.07a1.21,1.21,0,0,0-.35.13.32.32,0,0,0-.16.31,1.82,1.82,0,0,0,.2.58,1.21,1.21,0,0,1,.17.58l-.17-.05a.42.42,0,0,1-.14-.09.09.09,0,0,1-.06,0l-.05-.06h-.12a.21.21,0,0,0-.08.06.12.12,0,0,1-.09,0,.13.13,0,0,1-.07,0,.05.05,0,0,0-.07,0l-.17.09h-.17a.31.31,0,0,0,.16.27.35.35,0,0,1,.15.32l-.34.46-.25.31c-.08.09-.12.14-.14.14a.45.45,0,0,1-.15-.14.73.73,0,0,0-.11-.14v-.12l.16-.15c.06-.07.1-.11.1-.13a.24.24,0,0,1,.28.06l0-.29a.22.22,0,0,0-.14,0s-.05,0-.09.06,0,0-.08,0a.62.62,0,0,1-.34-.09.65.65,0,0,0-.31-.08.45.45,0,0,0-.48.56,1,1,0,0,1-.66-.19.81.81,0,0,0-.51-.2s0,0,0,0l0,0h-.06l-.09,0s0,0-.08,0h0l-.08-.08h-.06l0,0s0,0-.08.06l0,0,0,.77a.18.18,0,0,0,.17-.09l.1-.17a.86.86,0,0,1,.1-.16.21.21,0,0,1,.14-.07.14.14,0,0,1,.15.09.64.64,0,0,1,0,.2.67.67,0,0,0,0,.2c0,.05.05.08.13.08a.28.28,0,0,1,.08-.06l.12-.05h.08a.68.68,0,0,0-.07.17,1,1,0,0,0,0,.2.82.82,0,0,0,0,.14.09.09,0,0,0,.1.08,2.44,2.44,0,0,1,.38-.69c.2-.28.38-.42.56-.44a.2.2,0,0,1,.17.11,1.73,1.73,0,0,1,.08.27,1.19,1.19,0,0,1,0,.33,1,1,0,0,1,0,.28l.24-.21a.83.83,0,0,1,.27-.19.29.29,0,0,1,.22.12,1.7,1.7,0,0,1,.18.28,2.13,2.13,0,0,1,.14.35,1.54,1.54,0,0,0,.12.3,1.47,1.47,0,0,0-.33.9,8.3,8.3,0,0,0,0,1,.45.45,0,0,0,.08.26,1,1,0,0,1,.1.26.52.52,0,0,1-.44-.17.46.46,0,0,0-.39-.18.41.41,0,0,1,0,.1l0,.1s.05,0,.09.09.06.09.06.11a0,0,0,0,1,0,0,.12.12,0,0,1-.09,0,.57.57,0,0,1-.2-.07l-.22-.1S300.27,86.22,300.21,86.22ZM298,72.1s0-.06-.07-.06,0,0,0,.06,0,.05,0,.05S298,72.14,298,72.1Zm.54,9.58h.23c0-.09-.11-.16-.26-.19Zm1.93,11.58a.21.21,0,0,0-.09,0s0,0-.08,0,0,0,0,0h-.06c0-.15,0-.25-.07-.28a.28.28,0,0,1-.07-.2l.19,0c.08,0,.11-.08.1-.17l-.37-.4-.3-.27a.59.59,0,0,0-.21-.12h0a.32.32,0,0,0-.14.11c-.06.06-.09.09-.09.11l-.31-.61a2,2,0,0,1-.23-.66c0-.16.07-.24.2-.26a.32.32,0,0,0,.26-.17c.19-.32.38-.64.58-1a1.36,1.36,0,0,1,.86-.61s.05,0,.1-.06.08,0,.1,0a.27.27,0,0,1,.13,0c.05,0,.07.06.07.1a.61.61,0,0,1,0-.16.61.61,0,0,0,0-.16h.05q.18,0,.27.27c.07.18.13.38.19.59s.11.41.17.6.12.31.2.33c0-.15,0-.24.11-.28a.39.39,0,0,1,.11.28.25.25,0,0,1,0,.21.62.62,0,0,0-.05.25v0a.24.24,0,0,0,.1.1l.12.07s0,0,.09,0a.81.81,0,0,0,.06.33,1.6,1.6,0,0,1,.08.3.45.45,0,0,1-.45.48.37.37,0,0,1-.37-.2.54.54,0,0,0-.16.27c0,.14-.09.29-.13.44a3.44,3.44,0,0,1-.11.41c0,.12-.07.18-.11.18a.25.25,0,0,1-.12,0,.11.11,0,0,1-.08,0h-.06c-.15,0-.23,0-.25.15s-.08.16-.17.16Zm-1.22-11.49a.2.2,0,0,1,0,.08.61.61,0,0,0,.05.12h.11s0,0,.06,0l0-.05c0-.09-.09-.14-.22-.14h-.05S299.24,81.77,299.22,81.77Zm.09-9.93.11,0v-.19l-.11,0Zm.11,12.6s-.05,0,0,.09,0,.1.07.1.08,0,.07-.1A.09.09,0,0,0,299.42,84.44Zm0-3.35s0,0,0,0l.07,0c.08,0,.11-.11.1-.22s0-.19,0-.23a.23.23,0,0,0-.2.31Zm0,2.86h.11l0-.2h-.11Zm.28,6.27s-.05,0-.05.09,0,.12.05.08a.1.1,0,0,0,.06-.1S299.74,90.22,299.7,90.22Zm.09-8.65c.24,0,.36-.1.36-.31h-.39Zm0,8.2.11-.09-.11-.11Zm.08-10.3a1.37,1.37,0,0,0,0,.16.15.15,0,0,0,.1.13.21.21,0,0,0,.12-.16,1.37,1.37,0,0,0,0-.16Zm.06-7.49s-.05.07,0,.13,0,.09.07.07.05,0,0-.1S300,72,299.93,72Zm.31,20.28,0-.11h-.11ZM300.15,72a.58.58,0,0,1,.05.22c0,.12.06.18.15.2s.09-.08.09-.2S300.34,72,300.15,72Zm.23.7c-.07,0-.11,0-.11.12s0,.12,0,.24,0,.2,0,.24h.17a.44.44,0,0,1,0-.14.49.49,0,0,1,0-.12.36.36,0,0,0,0-.11v-.11Q300.47,72.66,300.38,72.66Zm0-1.36a.3.3,0,0,0,.23.09v-.26C300.53,71.13,300.46,71.19,300.38,71.3ZM300.5,92a2.48,2.48,0,0,0,.08.51,3.36,3.36,0,0,1,.09.54c.11,0,.19-.07.25-.2a.86.86,0,0,0,.09-.26.26.26,0,0,1-.15-.14,1.21,1.21,0,0,0-.07-.2,2,2,0,0,0-.1-.21.34.34,0,0,0-.19-.16Zm.39-11.77c0,.15.11.22.2.22s0-.26.1-.44a3.31,3.31,0,0,1,.48-.55,3.77,3.77,0,0,1,.61-.48,1.07,1.07,0,0,1,.46-.2,1.35,1.35,0,0,1-.26,0c-.13,0-.21,0-.23,0s-.09,0-.15.14a.89.89,0,0,1-.13.17.24.24,0,0,1-.11,0l-.12-.07h0c-.1,0-.18.08-.25.24s-.1.25-.1.27a.44.44,0,0,0-.08-.2c-.06-.09-.1-.14-.14-.14s-.07-.11-.09-.11a.61.61,0,0,1-.08.4.53.53,0,0,1-.4.19v.12a.23.23,0,0,1,.1.14.43.43,0,0,1,0,.14.77.77,0,0,1,.09-.13s.07-.07.11-.07H301a.43.43,0,0,1-.06.24A.43.43,0,0,0,300.89,80.27ZM300.67,79l.08,0v-.11l-.08,0Zm.51,12.56a.43.43,0,0,0-.24.06c-.07,0-.09.11-.08.23C301.09,91.83,301.2,91.73,301.18,91.58Zm-.26-.82.11,0-.11-.08Zm.17-9.47c-.06,0-.08,0-.08.1s0,.1.08.1.06,0,.06-.1S301.13,81.29,301.09,81.29Zm0,11.4c-.06,0-.08.07-.07.14s0,.1.1.09.05,0,0-.12S301.16,92.69,301.12,92.69Zm0-18.66.11-.09-.11,0Zm0,7.46s0,0,0,0,0,.06.05.06.05,0,0,0A.1.1,0,0,0,301.15,81.49Zm.08,5.36.12,0,.14,0h.18a.2.2,0,0,1,.19.14.87.87,0,0,0-.13.19.52.52,0,0,1-.18.18q-.09,0-.18-.21A.59.59,0,0,0,301.23,86.85ZM301.37,71a1,1,0,0,0,0,.17.23.23,0,0,0,.07.14V71Zm.06,7.06s-.06,0-.06,0,0,.07.06,0,.06,0,.06,0S301.47,78.08,301.43,78.08Zm.12.48s0,0,0,.06,0,.06,0,.06a.1.1,0,0,0,.05-.07A0,0,0,0,0,301.55,78.56Zm.08,12.51h.26l-.17-.08Zm.79-20.73a.4.4,0,0,0-.42.48V71a1.27,1.27,0,0,0,.3-.27A.6.6,0,0,0,302.42,70.34Zm-.36.65s-.06,0-.06.11,0,.12.06.12.11,0,.11-.12A.1.1,0,0,0,302.06,71Zm.48,7.35s0,.1.13.2.15.14.21.14l.34-.77-.21-.06-.22,0h-.19a.51.51,0,0,0-.05.2,1.67,1.67,0,0,0,0,.19Zm.25-7.15c-.05,0-.08,0-.07.1s0,.1.1.1.05,0,0-.1S302.83,71.19,302.79,71.19Zm0,9.1s0-.13.09-.28l.11-.23h.09s0,0,.08,0l.11.06a.43.43,0,0,0-.07.21.43.43,0,0,0,0,.22,1.78,1.78,0,0,0,.08.34.6.6,0,0,0,.23.34h-.06a.53.53,0,0,1-.48-.2A.7.7,0,0,1,302.82,80.29Zm.14-.79a.08.08,0,0,0,.09.09h.11a1.16,1.16,0,0,0,0-.17c0-.08,0-.11-.1-.09s0,0-.06.07A.33.33,0,0,0,303,79.5Zm.4-3.91a.72.72,0,0,1-.31.62.2.2,0,0,0,0-.11.27.27,0,0,1,0-.12.58.58,0,0,1,.06-.31C303.09,75.61,303.19,75.59,303.36,75.59Zm-.14-3.35s.08,0,.14-.1a1.43,1.43,0,0,0,.16-.24c0-.1.09-.18.12-.26a.42.42,0,0,0,.06-.14.38.38,0,0,0-.42-.34h-.12Zm0,1.19h.11a.29.29,0,0,0-.11-.2Zm.23-2.81a.5.5,0,0,0,.25.29v0C303.63,70.69,303.55,70.6,303.42,70.62Zm.39,1.28a.25.25,0,0,0-.25.21,1.34,1.34,0,0,0-.06.36.33.33,0,0,0,.27-.23A.61.61,0,0,0,303.81,71.9Zm.06,1.62s-.06,0-.06.08,0,.09.06.09a.08.08,0,0,0,.09-.09C304,73.54,303.93,73.52,303.87,73.52Zm.37,1.92a1.06,1.06,0,0,1,0,.19.16.16,0,0,0,.1.13l0-.32Zm.14-2.07h.12v-.08h-.12Zm.23-.59a2,2,0,0,0,0,.34c0,.11.09.16.22.14H305l-.15-.51Zm.11,4s-.05,0-.05.1,0,.1.05.1a.12.12,0,0,0,.09-.13C304.81,76.75,304.78,76.73,304.72,76.75Zm.23-1.59a.53.53,0,0,0,.06.24.18.18,0,0,0,.19.13h.09a.59.59,0,0,1,.06-.33.72.72,0,0,0,0-.35.6.6,0,0,0-.08-.2.45.45,0,0,1-.09-.2,1.94,1.94,0,0,1-.2.33A.53.53,0,0,0,305,75.16Zm.31,1.87a.16.16,0,0,0-.13.13.26.26,0,0,0,0,.16h.14Zm.14-.82c0,.06,0,.1,0,.14a.55.55,0,0,0,0,.17v.09l.08,0Zm.14-1.9s-.05,0-.05,0,0,.07.05.07.06,0,.06-.07S305.58,74.31,305.54,74.31Zm.91,3.15s0,.05,0,.1-.09.09-.07.12l0,0a3,3,0,0,0-.14.43,2.74,2.74,0,0,0-.1.31c0,.1-.06.16-.07.2a.26.26,0,0,1-.12.11l-.11.09a.09.09,0,0,1,0-.06v-.06a.92.92,0,0,1,.08-.42.73.73,0,0,1,.22-.24,1.2,1.2,0,0,0,.22-.23A.71.71,0,0,0,306.45,77.46Zm-.39-1.79h.11v-.11Zm.9-.54s0,0,0,.07,0,.06,0,0a.09.09,0,0,0,.06-.08S307,75.13,307,75.13Z" transform="translate(-19.71 -3.39)" fill="#fff"/></svg>